<svg width="15" height="15" viewBox="0 0 15 15" fill="none" xmlns="http://www.w3.org/2000/svg">
<g clip-path="url(#clip0_70_1777)">
<mask id="mask0_70_1777" style="mask-type:luminance" maskUnits="userSpaceOnUse" x="0" y="0" width="15" height="15">
<path d="M15 0H0V15H15V0Z" fill="white"/>
</mask>
<g mask="url(#mask0_70_1777)">
<path d="M13.75 4.0625H10" stroke="white" stroke-width="0.9375" stroke-miterlimit="10" stroke-linecap="round" stroke-linejoin="round"/>
<path d="M3.75 4.0625H1.25" stroke="white" stroke-width="0.9375" stroke-miterlimit="10" stroke-linecap="round" stroke-linejoin="round"/>
<path d="M6.25 6.25C7.45812 6.25 8.4375 5.27062 8.4375 4.0625C8.4375 2.85438 7.45812 1.875 6.25 1.875C5.04188 1.875 4.0625 2.85438 4.0625 4.0625C4.0625 5.27062 5.04188 6.25 6.25 6.25Z" stroke="white" stroke-width="0.9375" stroke-miterlimit="10" stroke-linecap="round" stroke-linejoin="round"/>
<path d="M13.75 10.9375H11.25" stroke="white" stroke-width="0.9375" stroke-miterlimit="10" stroke-linecap="round" stroke-linejoin="round"/>
<path d="M5 10.9375H1.25" stroke="white" stroke-width="0.9375" stroke-miterlimit="10" stroke-linecap="round" stroke-linejoin="round"/>
<path d="M8.75 13.125C9.95812 13.125 10.9375 12.1456 10.9375 10.9375C10.9375 9.72938 9.95812 8.75 8.75 8.75C7.54188 8.75 6.5625 9.72938 6.5625 10.9375C6.5625 12.1456 7.54188 13.125 8.75 13.125Z" stroke="white" stroke-width="0.9375" stroke-miterlimit="10" stroke-linecap="round" stroke-linejoin="round"/>
</g>
</g>
<defs>
<clipPath id="clip0_70_1777">
<rect width="15" height="15" fill="white"/>
</clipPath>
</defs>
</svg>
