<svg width="15" height="15" viewBox="0 0 15 15" fill="none" xmlns="http://www.w3.org/2000/svg">
<mask id="mask0_164_19884" style="mask-type:luminance" maskUnits="userSpaceOnUse" x="0" y="0" width="15" height="15">
<path d="M15 0H0V15H15V0Z" fill="white"/>
</mask>
<g mask="url(#mask0_164_19884)">
<path d="M11.275 8.46875C11.0125 8.725 10.8625 9.09375 10.9 9.4875C10.9563 10.1625 11.575 10.6562 12.25 10.6562H13.4375V11.4C13.4375 12.6937 12.3812 13.75 11.0875 13.75H4.76875C4.9625 13.5875 5.13125 13.3875 5.2625 13.1625C5.49375 12.7875 5.625 12.3438 5.625 11.875C5.625 10.4937 4.50625 9.375 3.125 9.375C2.5375 9.375 1.99375 9.58125 1.5625 9.925V7.19375C1.5625 5.90001 2.61874 4.84375 3.91249 4.84375H11.0875C12.3812 4.84375 13.4375 5.90001 13.4375 7.19375V8.09375H12.175C11.825 8.09375 11.5063 8.23125 11.275 8.46875Z" stroke="#020618" stroke-linecap="round" stroke-linejoin="round"/>
<path d="M1.5625 7.75607V4.89986C1.5625 4.15611 2.01875 3.49357 2.7125 3.23107L7.675 1.35607C8.45 1.06232 9.28125 1.63734 9.28125 2.46859V4.84359" stroke="#020618" stroke-linecap="round" stroke-linejoin="round"/>
<path d="M14.1002 8.73125V10.0187C14.1002 10.3625 13.8252 10.6437 13.4752 10.6562H12.2502C11.5752 10.6562 10.9565 10.1625 10.9002 9.4875C10.8627 9.09375 11.0127 8.725 11.2752 8.46875C11.5065 8.23125 11.8252 8.09375 12.1752 8.09375H13.4752C13.8252 8.10625 14.1002 8.3875 14.1002 8.73125Z" stroke="#020618" stroke-linecap="round" stroke-linejoin="round"/>
<path d="M4.375 7.5H8.75" stroke="#020618" stroke-linecap="round" stroke-linejoin="round"/>
<path d="M5.625 11.875C5.625 12.3438 5.49375 12.7875 5.2625 13.1625C5.13125 13.3875 4.9625 13.5875 4.76875 13.75C4.33125 14.1437 3.75625 14.375 3.125 14.375C2.2125 14.375 1.41875 13.8875 0.9875 13.1625C0.75625 12.7875 0.625 12.3438 0.625 11.875C0.625 11.0875 0.9875 10.3813 1.5625 9.925C1.99375 9.58125 2.5375 9.375 3.125 9.375C4.50625 9.375 5.625 10.4937 5.625 11.875Z" stroke="#020618" stroke-miterlimit="10" stroke-linecap="round" stroke-linejoin="round"/>
<path d="M2.15234 11.8742L2.77109 12.493L4.10234 11.2617" stroke="#020618" stroke-linecap="round" stroke-linejoin="round"/>
</g>
</svg>
