<svg width="15" height="15" viewBox="0 0 15 15" fill="none" xmlns="http://www.w3.org/2000/svg">
<g clip-path="url(#clip0_363_48522)">
<mask id="mask0_363_48522" style="mask-type:luminance" maskUnits="userSpaceOnUse" x="0" y="0" width="15" height="15">
<path d="M15 0H0V15H15V0Z" fill="white"/>
</mask>
<g mask="url(#mask0_363_48522)">
<path d="M3.5328 4.78124L1.78281 3.03126C1.58906 2.83751 1.72656 2.5 2.00156 2.5H4.24531C4.32656 2.5 4.40781 2.53124 4.46406 2.59374L7.58906 5.71874C7.78281 5.91249 7.64531 6.25 7.37031 6.25H5.31406C4.10781 6.25 3.12656 7.23125 3.12656 8.4375C3.12656 9.64375 4.10781 10.625 5.31406 10.625H6.25156L7.59531 11.9687C7.78906 12.1625 7.65156 12.5 7.37656 12.5H5.32031C3.07656 12.5 1.25781 10.6812 1.25781 8.4375C1.25781 6.88125 2.13281 5.525 3.42656 4.84375L3.5328 4.78124Z" fill="white"/>
<path d="M11.4695 10.2188L13.2195 11.9688C13.4133 12.1625 13.2758 12.5 13.0008 12.5H10.757C10.6758 12.5 10.5945 12.4688 10.5383 12.4062L7.41325 9.28125C7.2195 9.0875 7.357 8.75 7.632 8.75H9.68825C10.8945 8.75 11.8758 7.76875 11.8758 6.5625C11.8758 5.35625 10.8945 4.375 9.68825 4.375H8.75075L7.407 3.03126C7.21325 2.83751 7.35075 2.5 7.62575 2.5H9.682C11.9258 2.5 13.7445 4.31875 13.7445 6.5625C13.7445 8.11875 12.8695 9.475 11.5758 10.1562L11.4695 10.2188Z" fill="white"/>
</g>
</g>
<defs>
<clipPath id="clip0_363_48522">
<rect width="15" height="15" fill="white"/>
</clipPath>
</defs>
</svg>
