<svg width="15" height="15" viewBox="0 0 15 15" fill="none" xmlns="http://www.w3.org/2000/svg">
<mask id="mask0_70_186" style="mask-type:luminance" maskUnits="userSpaceOnUse" x="0" y="0" width="15" height="15">
<path d="M15 0H0V15H15V0Z" fill="white"/>
</mask>
<g mask="url(#mask0_70_186)">
<path d="M12.1375 7.34375H10C9.74375 7.34375 9.53125 7.13125 9.53125 6.875V2.50625C9.53125 2.04375 9.7125 1.6125 10.0375 1.2875C10.3625 0.9625 10.7938 0.78125 11.2563 0.78125H11.2625C12.0438 0.7875 12.7813 1.09375 13.3438 1.65C13.9062 2.21875 14.2125 2.96875 14.2125 3.75V5.2625C14.2188 6.50625 13.3813 7.34375 12.1375 7.34375ZM10.4688 6.40625H12.1375C12.8625 6.40625 13.2812 5.9875 13.2812 5.2625V3.75C13.2812 3.2125 13.0687 2.7 12.6875 2.3125C12.3062 1.9375 11.7938 1.725 11.2625 1.71875C11.2625 1.71875 11.2625 1.71875 11.2563 1.71875C11.05 1.71875 10.85 1.8 10.7 1.95C10.55 2.1 10.4688 2.29375 10.4688 2.50625V6.40625Z" fill="white"/>
<path d="M5.62485 14.5813C5.3311 14.5813 5.0561 14.4688 4.84985 14.2562L3.81235 13.2125C3.7561 13.1562 3.6686 13.15 3.6061 13.2L2.53735 14C2.2061 14.25 1.7686 14.2937 1.3936 14.1062C1.0186 13.9187 0.787354 13.5437 0.787354 13.125V3.75C0.787354 1.8625 1.8686 0.78125 3.7561 0.78125H11.2561C11.5124 0.78125 11.7249 0.99375 11.7249 1.25C11.7249 1.50625 11.5124 1.71875 11.2561 1.71875C10.8249 1.71875 10.4749 2.06875 10.4749 2.5V13.125C10.4749 13.5437 10.2436 13.9187 9.86862 14.1062C9.49362 14.2937 9.05612 14.2563 8.72487 14.0063L7.65612 13.2062C7.59362 13.1562 7.50612 13.1687 7.45612 13.2188L6.40612 14.2688C6.1936 14.4688 5.9186 14.5813 5.62485 14.5813ZM3.6936 12.2312C3.9811 12.2312 4.26235 12.3375 4.47485 12.5562L5.51235 13.6C5.54985 13.6375 5.59985 13.6438 5.62485 13.6438C5.64985 13.6438 5.69985 13.6375 5.73735 13.6L6.78737 12.55C7.17487 12.1625 7.78737 12.125 8.21862 12.4563L9.28112 13.25C9.34987 13.3 9.41237 13.2812 9.44362 13.2625C9.47487 13.2437 9.53112 13.2063 9.53112 13.125V2.5C9.53112 2.21875 9.59987 1.95 9.71862 1.71875H3.74985C2.36235 1.71875 1.7186 2.3625 1.7186 3.75V13.125C1.7186 13.2125 1.77485 13.25 1.8061 13.2687C1.8436 13.2875 1.9061 13.3 1.9686 13.25L3.03735 12.45C3.2311 12.3062 3.46235 12.2312 3.6936 12.2312Z" fill="white"/>
<path d="M7.1438 8.80029C6.7938 8.80029 6.5188 8.51904 6.5188 8.17529C6.5188 7.83154 6.80005 7.55029 7.1438 7.55029C7.48755 7.55029 7.7688 7.83154 7.7688 8.17529C7.7688 8.51904 7.48755 8.80029 7.1438 8.80029Z" fill="white"/>
<path d="M4.1062 6.26906C3.7562 6.26906 3.4812 5.98779 3.4812 5.64404C3.4812 5.30029 3.76245 5.01904 4.1062 5.01904C4.44995 5.01904 4.7312 5.30029 4.7312 5.64404C4.7312 5.98779 4.44995 6.26906 4.1062 6.26906Z" fill="white"/>
<path d="M3.9186 9.05012C3.79985 9.05012 3.6811 9.00637 3.58735 8.91262C3.4061 8.73137 3.4061 8.43137 3.58735 8.25012L6.99988 4.8376C7.18113 4.65635 7.48113 4.65635 7.66238 4.8376C7.84363 5.01885 7.84363 5.31885 7.66238 5.5001L4.24985 8.91262C4.16235 9.00012 4.03735 9.05012 3.9186 9.05012Z" fill="white"/>
</g>
</svg>
