<svg width="15" height="15" viewBox="0 0 15 15" fill="none" xmlns="http://www.w3.org/2000/svg">
<g clip-path="url(#clip0_144_23173)">
<mask id="mask0_144_23173" style="mask-type:luminance" maskUnits="userSpaceOnUse" x="0" y="0" width="15" height="15">
<path d="M15 0H0V15H15V0Z" fill="white"/>
</mask>
<g mask="url(#mask0_144_23173)">
<path d="M2.45937 10.3937C2.34062 10.3937 2.22187 10.3499 2.12812 10.2562C1.94688 10.0749 1.94688 9.77494 2.12812 9.59369L9.59686 2.12495C9.77811 1.9437 10.0781 1.9437 10.2594 2.12495C10.4406 2.3062 10.4406 2.6062 10.2594 2.78745L2.79063 10.2624C2.70313 10.3499 2.57812 10.3937 2.45937 10.3937Z" fill="black"/>
<path d="M6.93594 11.8932C6.81719 11.8932 6.69844 11.8495 6.60469 11.7557C6.42344 11.5745 6.42344 11.2745 6.60469 11.0932L7.35469 10.3432C7.53594 10.162 7.83594 10.162 8.01719 10.3432C8.19844 10.5245 8.19844 10.8245 8.01719 11.0057L7.26719 11.7557C7.17969 11.8432 7.06094 11.8932 6.93594 11.8932Z" fill="black"/>
<path d="M8.61562 10.2122C8.49687 10.2122 8.37813 10.1684 8.28438 10.0747C8.10313 9.89341 8.10313 9.59341 8.28438 9.41216L9.77812 7.91841C9.95937 7.73716 10.2594 7.73716 10.4406 7.91841C10.6219 8.09966 10.6219 8.39966 10.4406 8.58091L8.94687 10.0747C8.85937 10.1622 8.73437 10.2122 8.61562 10.2122Z" fill="black"/>
<path d="M6.93439 14.2186C6.32189 14.2186 5.70939 13.8436 4.96564 13.0998L1.89689 10.0311C0.403145 8.53732 0.409395 7.57482 1.91564 6.06857L6.06564 1.91857C7.57189 0.412325 8.53439 0.406075 10.0281 1.89982L13.0969 4.96857C14.5906 6.46232 14.5844 7.42482 13.0781 8.93107L8.92814 13.0811C8.17189 13.8373 7.55314 14.2186 6.93439 14.2186ZM8.05939 1.71857C7.73439 1.71857 7.32189 1.98732 6.72814 2.58107L2.57814 6.73107C1.98439 7.32482 1.71564 7.73732 1.71564 8.05607C1.71564 8.38107 1.96564 8.77482 2.55939 9.36857L5.62814 12.4373C6.22189 13.0311 6.60939 13.2811 6.93439 13.2811C6.93439 13.2811 6.93439 13.2811 6.94064 13.2811C7.26564 13.2811 7.67189 13.0123 8.26564 12.4186L12.4156 8.26857C13.0094 7.67482 13.2781 7.26232 13.2781 6.94357C13.2781 6.61857 13.0281 6.22482 12.4344 5.63107L9.36564 2.56232C8.77814 1.96857 8.38439 1.71857 8.05939 1.71857Z" fill="black"/>
<path d="M13.75 14.2188H1.25C0.99375 14.2188 0.78125 14.0062 0.78125 13.75C0.78125 13.4938 0.99375 13.2812 1.25 13.2812H13.75C14.0062 13.2812 14.2188 13.4938 14.2188 13.75C14.2188 14.0062 14.0062 14.2188 13.75 14.2188Z" fill="black"/>
</g>
</g>
<defs>
<clipPath id="clip0_144_23173">
<rect width="15" height="15" fill="white"/>
</clipPath>
</defs>
</svg>
