<svg width="10" height="10" viewBox="0 0 10 10" fill="none" xmlns="http://www.w3.org/2000/svg">
<g clip-path="url(#clip0_184_34929)">
<mask id="mask0_184_34929" style="mask-type:luminance" maskUnits="userSpaceOnUse" x="0" y="0" width="10" height="10">
<path d="M10 0H0V10H10V0Z" fill="white"/>
</mask>
<g mask="url(#mask0_184_34929)">
<path d="M8.75148 2.8042C8.74315 2.8042 8.73065 2.8042 8.71815 2.8042C6.51398 2.58336 4.31398 2.50003 2.13482 2.72086L1.28482 2.8042C1.10982 2.82086 0.955657 2.69586 0.938991 2.52086C0.922324 2.34586 1.04732 2.19586 1.21816 2.1792L2.06816 2.09586C4.28482 1.87086 6.53065 1.95836 8.78065 2.1792C8.95148 2.19586 9.07648 2.35003 9.05982 2.52086C9.04732 2.68336 8.90982 2.8042 8.75148 2.8042Z" fill="#790728"/>
<path d="M3.54328 2.38325C3.52661 2.38325 3.50994 2.38325 3.48911 2.37909C3.32244 2.34992 3.20578 2.18742 3.23494 2.02075L3.32661 1.47492C3.39328 1.07492 3.48494 0.520752 4.45577 0.520752H5.54744C6.52244 0.520752 6.61411 1.09575 6.67661 1.47909L6.76827 2.02075C6.79744 2.19159 6.68077 2.35409 6.51411 2.37909C6.34327 2.40825 6.18077 2.29159 6.15577 2.12492L6.06411 1.58325C6.00577 1.22075 5.99327 1.14992 5.55161 1.14992H4.45994C4.01828 1.14992 4.00994 1.20825 3.94744 1.57909L3.85161 2.12075C3.82661 2.27492 3.69328 2.38325 3.54328 2.38325Z" fill="#790728"/>
<path d="M6.34092 9.47884H3.66592C2.21175 9.47884 2.15342 8.67467 2.10758 8.02467L1.83675 3.82883C1.82425 3.658 1.95758 3.508 2.12842 3.4955C2.30342 3.48717 2.44925 3.61633 2.46175 3.78717L2.73258 7.983C2.77842 8.61634 2.79508 8.85384 3.66592 8.85384H6.34092C7.21592 8.85384 7.23258 8.61634 7.27425 7.983L7.54508 3.78717C7.55758 3.61633 7.70758 3.48717 7.87842 3.4955C8.04925 3.508 8.18258 3.65383 8.17008 3.82883L7.89925 8.02467C7.85342 8.67467 7.79508 9.47884 6.34092 9.47884Z" fill="#790728"/>
<path d="M5.6922 7.1875H4.3047C4.13385 7.1875 3.99219 7.04583 3.99219 6.875C3.99219 6.70417 4.13385 6.5625 4.3047 6.5625H5.6922C5.86303 6.5625 6.0047 6.70417 6.0047 6.875C6.0047 7.04583 5.86303 7.1875 5.6922 7.1875Z" fill="#790728"/>
<path d="M6.04427 5.52075H3.96094C3.7901 5.52075 3.64844 5.37909 3.64844 5.20825C3.64844 5.03742 3.7901 4.89575 3.96094 4.89575H6.04427C6.2151 4.89575 6.35677 5.03742 6.35677 5.20825C6.35677 5.37909 6.2151 5.52075 6.04427 5.52075Z" fill="#790728"/>
</g>
</g>
<defs>
<clipPath id="clip0_184_34929">
<rect width="10" height="10" fill="white"/>
</clipPath>
</defs>
</svg>
