<svg width="9" height="10" viewBox="0 0 9 10" fill="none" xmlns="http://www.w3.org/2000/svg">
<path d="M4 0.356934H3.16667C1.08333 0.356934 0.25 1.20573 0.25 3.3277V5.87408C0.25 7.99606 1.08333 8.84485 3.16667 8.84485H5.66667C7.75 8.84485 8.58333 7.99606 8.58333 5.87408V5.02529" stroke="#790728" stroke-width="0.5" stroke-linecap="round" stroke-linejoin="round"/>
<path d="M6.10174 0.789504L2.81841 4.13375C2.69341 4.26107 2.56841 4.51146 2.54341 4.69395L2.36424 5.97138C2.29757 6.43398 2.61841 6.75652 3.07257 6.69286L4.32674 6.51037C4.50174 6.4849 4.74757 6.35758 4.87674 6.23027L8.16007 2.88602C8.72674 2.30884 8.99341 1.6383 8.16007 0.789504C7.32674 -0.0592872 6.66841 0.212326 6.10174 0.789504Z" stroke="#790728" stroke-width="0.5" stroke-miterlimit="10" stroke-linecap="round" stroke-linejoin="round"/>
<path d="M5.62891 1.26953C5.90807 2.28384 6.68724 3.07746 7.68724 3.36605" stroke="#790728" stroke-width="0.5" stroke-miterlimit="10" stroke-linecap="round" stroke-linejoin="round"/>
</svg>
