<svg width="15" height="15" viewBox="0 0 15 15" fill="none" xmlns="http://www.w3.org/2000/svg">
<path d="M10.7998 7C10.681 7 10.5622 6.95625 10.4685 6.8625C10.2872 6.68125 10.2872 6.38125 10.4685 6.2L12.4622 4.20625L10.4685 2.21249C10.2872 2.03124 10.2872 1.73125 10.4685 1.55C10.6497 1.36875 10.9497 1.36875 11.131 1.55L13.456 3.87502C13.5435 3.96252 13.5935 4.08125 13.5935 4.20625C13.5935 4.33125 13.5435 4.45001 13.456 4.53751L11.131 6.8625C11.0372 6.95 10.9185 7 10.7998 7Z" fill="white"/>
<path d="M13.125 4.67529H1.875C1.61875 4.67529 1.40625 4.46279 1.40625 4.20654C1.40625 3.95029 1.61875 3.73779 1.875 3.73779H13.125C13.3813 3.73779 13.5938 3.95029 13.5938 4.20654C13.5938 4.46279 13.3813 4.67529 13.125 4.67529Z" fill="white"/>
<path d="M4.19998 13.5938C4.08123 13.5938 3.9625 13.55 3.86875 13.4563L1.54373 11.1312C1.45623 11.0438 1.40625 10.925 1.40625 10.8C1.40625 10.675 1.45623 10.5563 1.54373 10.4688L3.86875 8.14375C4.05 7.9625 4.35 7.9625 4.53125 8.14375C4.7125 8.325 4.7125 8.625 4.53125 8.80625L2.5375 10.8L4.53125 12.7937C4.7125 12.9749 4.7125 13.275 4.53125 13.4563C4.44375 13.55 4.32498 13.5938 4.19998 13.5938Z" fill="white"/>
<path d="M13.125 11.2622H1.875C1.61875 11.2622 1.40625 11.0497 1.40625 10.7935C1.40625 10.5372 1.61875 10.3247 1.875 10.3247H13.125C13.3813 10.3247 13.5938 10.5372 13.5938 10.7935C13.5938 11.0497 13.3813 11.2622 13.125 11.2622Z" fill="white"/>
</svg>
