<svg width="18" height="18" viewBox="0 0 18 18" fill="none" xmlns="http://www.w3.org/2000/svg">
  <!-- Car body -->
  <path d="M3 10.5h12v3a.5.5 0 0 1-.5.5H3.5a.5.5 0 0 1-.5-.5v-3z" stroke="black" stroke-width="1.05" stroke-linejoin="round"/>
  <!-- Car roof -->
  <path d="M5 10.5l1.8-3h4.4l1.8 3" stroke="black" stroke-width="1.05" stroke-linecap="round" stroke-linejoin="round"/>
  <!-- Wheels -->
  <circle cx="5.5" cy="13.5" r="1.3" stroke="black" stroke-width="1"/>
  <circle cx="12.5" cy="13.5" r="1.3" stroke="black" stroke-width="1"/>
  <!-- History clock badge top-right -->
  <circle cx="14" cy="4.5" r="3" stroke="black" stroke-width="1" fill="white"/>
  <line x1="14" y1="4.5" x2="14" y2="2.8" stroke="black" stroke-width="0.9" stroke-linecap="round"/>
  <line x1="14" y1="4.5" x2="15.4" y2="5.4" stroke="black" stroke-width="0.9" stroke-linecap="round"/>
  <!-- History arrow (counter-clockwise arc hint) -->
  <path d="M11.5 3.5 A2.6 2.6 0 0 0 11.2 5.5" stroke="black" stroke-width="0.85" stroke-linecap="round"/>
  <polyline points="11.5,3 11.5,3.5 12,3.5" stroke="black" stroke-width="0.8" stroke-linecap="round" stroke-linejoin="round"/>
</svg>
