<svg width="18" height="18" viewBox="0 0 18 18" fill="none" xmlns="http://www.w3.org/2000/svg">
  <!-- Clipboard base -->
  <rect x="3" y="4.5" width="12" height="12" rx="1.5" stroke="black" stroke-width="1.2"/>
  <!-- Clip tab -->
  <path d="M6.75 4.5V3.75C6.75 3.34 7.09 3 7.5 3H10.5C10.91 3 11.25 3.34 11.25 3.75V4.5" stroke="black" stroke-width="1.2" stroke-linecap="round"/>
  <!-- Wrench icon inside -->
  <path d="M6.5 13.5C5.67 13.5 5 12.83 5 12C5 11.17 5.67 10.5 6.5 10.5C6.72 10.5 6.93 10.55 7.12 10.64L9 8.75L9.75 9.5L7.86 11.38C7.95 11.57 8 11.78 8 12C8 12.83 7.33 13.5 6.5 13.5Z" stroke="black" stroke-width="0.9" stroke-linecap="round" stroke-linejoin="round"/>
  <!-- Bullet list lines -->
  <circle cx="9.75" cy="7.5" r="0.4" fill="black"/>
  <path d="M11 7.5H14" stroke="black" stroke-width="0.9" stroke-linecap="round"/>
  <circle cx="9.75" cy="9.75" r="0.4" fill="black"/>
  <path d="M11 9.75H14" stroke="black" stroke-width="0.9" stroke-linecap="round"/>
  <circle cx="9.75" cy="12" r="0.4" fill="black"/>
  <path d="M11 12H14" stroke="black" stroke-width="0.9" stroke-linecap="round"/>
</svg>
