<svg width="18" height="18" viewBox="0 0 18 18" fill="none" xmlns="http://www.w3.org/2000/svg">
  <path d="M5.25 2.25H12.75C13.5784 2.25 14.25 2.92157 14.25 3.75V14.25C14.25 15.0784 13.5784 15.75 12.75 15.75H5.25C4.42157 15.75 3.75 15.0784 3.75 14.25V3.75C3.75 2.92157 4.42157 2.25 5.25 2.25Z" stroke="black" stroke-width="1.2" stroke-linecap="round" stroke-linejoin="round"/>
  <path d="M6.75 2.25C6.75 1.83579 7.08579 1.5 7.5 1.5H10.5C10.9142 1.5 11.25 1.83579 11.25 2.25V3C11.25 3.41421 10.9142 3.75 10.5 3.75H7.5C7.08579 3.75 6.75 3.41421 6.75 3V2.25Z" stroke="black" stroke-width="1.2" stroke-linecap="round" stroke-linejoin="round"/>
  <path d="M6.75 7.125H11.25" stroke="black" stroke-width="1.2" stroke-linecap="round"/>
  <path d="M6.75 10.125H10.125" stroke="black" stroke-width="1.2" stroke-linecap="round"/>
  <path d="M6.75 13.125H8.625" stroke="black" stroke-width="1.2" stroke-linecap="round"/>
  <path d="M12.375 11.625L13.875 13.125" stroke="black" stroke-width="1.2" stroke-linecap="round"/>
  <path d="M13.875 11.625L12.375 13.125" stroke="black" stroke-width="1.2" stroke-linecap="round"/>
</svg>
