<svg width="15" height="15" viewBox="0 0 15 15" fill="none" xmlns="http://www.w3.org/2000/svg">
<g clip-path="url(#clip0_212_51695)">
<mask id="mask0_212_51695" style="mask-type:luminance" maskUnits="userSpaceOnUse" x="0" y="0" width="15" height="15">
<path d="M15 0H0V15H15V0Z" fill="white"/>
</mask>
<g mask="url(#mask0_212_51695)">
<path d="M9.375 14.2188H5.625C2.23125 14.2188 0.78125 12.7687 0.78125 9.375V5.625C0.78125 2.23125 2.23125 0.78125 5.625 0.78125H9.375C12.7687 0.78125 14.2188 2.23125 14.2188 5.625V9.375C14.2188 12.7687 12.7687 14.2188 9.375 14.2188ZM5.625 1.71875C2.74375 1.71875 1.71875 2.74375 1.71875 5.625V9.375C1.71875 12.2563 2.74375 13.2812 5.625 13.2812H9.375C12.2563 13.2812 13.2812 12.2563 13.2812 9.375V5.625C13.2812 2.74375 12.2563 1.71875 9.375 1.71875H5.625Z" fill="#020618"/>
<path d="M7.50311 11.8432C7.35311 11.8432 7.20311 11.8057 7.07811 11.7369C6.35311 11.3432 5.07188 10.9182 4.26563 10.8119L4.14688 10.7932C3.53438 10.7182 3.04688 10.1682 3.04688 9.53694V4.72444C3.04688 4.36819 3.19689 4.02444 3.45314 3.78694C3.71564 3.54944 4.05313 3.4307 4.41563 3.46195C5.32813 3.53695 6.65311 3.97446 7.43436 4.46196L7.49686 4.49945L7.52192 4.48071C8.30942 3.98696 9.63436 3.5432 10.5531 3.46195C10.5656 3.46195 10.6031 3.46195 10.6156 3.46195C10.9406 3.4307 11.2906 3.55569 11.5469 3.78694C11.8094 4.02444 11.9531 4.35569 11.9531 4.71819V9.52444C11.9531 10.1494 11.4656 10.6994 10.8469 10.7807L10.7156 10.7994C9.91561 10.9057 8.62811 11.3307 7.91561 11.7244C7.79686 11.8119 7.65311 11.8432 7.50311 11.8432ZM4.30939 4.40569C4.22189 4.40569 4.14686 4.43694 4.09061 4.48694C4.02186 4.54944 3.99063 4.63695 3.99063 4.7307V9.54319C3.99063 9.69319 4.12814 9.84944 4.27189 9.86819L4.39064 9.88694C5.30314 10.0119 6.70311 10.4682 7.51561 10.9119C8.27186 10.4744 9.67811 10.0057 10.5969 9.88694L10.7344 9.86819C10.8781 9.84944 11.0156 9.69319 11.0156 9.54319V4.73694C11.0156 4.63694 10.9781 4.55569 10.9156 4.49319C10.8469 4.43069 10.7594 4.40569 10.6594 4.41194C10.6469 4.41194 10.6094 4.41194 10.5969 4.41194C9.87186 4.47444 8.67811 4.87444 8.02811 5.28694L7.96561 5.32444C7.69061 5.49319 7.30311 5.49319 7.04061 5.33069L6.94686 5.27444C6.29061 4.86194 5.09688 4.46819 4.34063 4.40569C4.32813 4.40569 4.32189 4.40569 4.30939 4.40569Z" fill="#020618"/>
<path d="M7.5 11.5062C7.24375 11.5062 7.03125 11.2937 7.03125 11.0375V5.0625C7.03125 4.80625 7.24375 4.59375 7.5 4.59375C7.75625 4.59375 7.96875 4.80625 7.96875 5.0625V11.0375C7.96875 11.3 7.75625 11.5062 7.5 11.5062Z" fill="#020618"/>
</g>
</g>
<defs>
<clipPath id="clip0_212_51695">
<rect width="15" height="15" fill="white"/>
</clipPath>
</defs>
</svg>
