<svg width="15" height="15" viewBox="0 0 15 15" fill="none" xmlns="http://www.w3.org/2000/svg">
<g clip-path="url(#clip0_70_1766)">
<mask id="mask0_70_1766" style="mask-type:luminance" maskUnits="userSpaceOnUse" x="0" y="0" width="15" height="15">
<path d="M15 0H0V15H15V0Z" fill="white"/>
</mask>
<g mask="url(#mask0_70_1766)">
<path d="M5.72461 7.2625C5.70586 7.2625 5.69336 7.2625 5.67461 7.2625C5.64336 7.25625 5.59961 7.25625 5.56211 7.2625C3.74961 7.20625 2.38086 5.78125 2.38086 4.025C2.38086 2.2375 3.83711 0.78125 5.62461 0.78125C7.41213 0.78125 8.86838 2.2375 8.86838 4.025C8.86213 5.78125 7.48713 7.20625 5.74336 7.2625C5.73711 7.2625 5.73086 7.2625 5.72461 7.2625ZM5.62461 1.71875C4.35586 1.71875 3.31836 2.75625 3.31836 4.025C3.31836 5.275 4.29336 6.28125 5.53711 6.325C5.57461 6.31875 5.65586 6.31875 5.73711 6.325C6.96213 6.26875 7.92463 5.2625 7.93088 4.025C7.93088 2.75625 6.89338 1.71875 5.62461 1.71875Z" fill="white"/>
<path d="M10.3372 7.34375C10.3185 7.34375 10.2997 7.34375 10.281 7.3375C10.0247 7.3625 9.76223 7.18125 9.73723 6.925C9.71223 6.66875 9.86848 6.4375 10.1247 6.40625C10.1997 6.4 10.281 6.4 10.3497 6.4C11.2622 6.35 11.9747 5.6 11.9747 4.68125C11.9747 3.73125 11.206 2.9625 10.256 2.9625C9.99973 2.96875 9.78723 2.75625 9.78723 2.5C9.78723 2.24375 9.99973 2.03125 10.256 2.03125C11.7185 2.03125 12.9122 3.225 12.9122 4.6875C12.9122 6.125 11.7872 7.2875 10.356 7.34375C10.3497 7.34375 10.3435 7.34375 10.3372 7.34375Z" fill="white"/>
<path d="M5.73101 14.0937C4.50601 14.0937 3.27476 13.7812 2.34351 13.1562C1.47476 12.5812 0.999756 11.7937 0.999756 10.9375C0.999756 10.0812 1.47476 9.2875 2.34351 8.70625C4.21851 7.4625 7.256 7.4625 9.1185 8.70625C9.981 9.28125 10.4622 10.0687 10.4622 10.925C10.4622 11.7812 9.98725 12.575 9.1185 13.1562C8.181 13.7812 6.956 14.0937 5.73101 14.0937ZM2.86226 9.49375C2.26226 9.89375 1.93726 10.4062 1.93726 10.9437C1.93726 11.475 2.26851 11.9875 2.86226 12.3812C4.41851 13.425 7.0435 13.425 8.59975 12.3812C9.19975 11.9812 9.52475 11.4687 9.52475 10.9312C9.52475 10.4 9.1935 9.8875 8.59975 9.49375C7.0435 8.45625 4.41851 8.45625 2.86226 9.49375Z" fill="white"/>
<path d="M11.4624 12.9688C11.2436 12.9688 11.0499 12.8188 11.0061 12.5938C10.9561 12.3375 11.1186 12.0938 11.3686 12.0375C11.7624 11.9563 12.1249 11.8 12.4061 11.5813C12.7624 11.3125 12.9561 10.975 12.9561 10.6188C12.9561 10.2625 12.7624 9.92501 12.4124 9.66251C12.1374 9.45001 11.7936 9.30001 11.3874 9.20626C11.1374 9.15001 10.9749 8.90001 11.0311 8.64376C11.0874 8.39376 11.3374 8.23126 11.5936 8.28751C12.1311 8.40626 12.5999 8.61876 12.9811 8.91251C13.5624 9.35001 13.8936 9.96876 13.8936 10.6188C13.8936 11.2688 13.5561 11.8875 12.9749 12.3313C12.5874 12.6313 12.0999 12.85 11.5624 12.9563C11.5249 12.9688 11.4936 12.9688 11.4624 12.9688Z" fill="white"/>
</g>
</g>
<defs>
<clipPath id="clip0_70_1766">
<rect width="15" height="15" fill="white"/>
</clipPath>
</defs>
</svg>
