<svg width="15" height="15" viewBox="0 0 15 15" fill="none" xmlns="http://www.w3.org/2000/svg">
<g clip-path="url(#clip0_166_57538)">
<g clip-path="url(#clip1_166_57538)">
<mask id="mask0_166_57538" style="mask-type:luminance" maskUnits="userSpaceOnUse" x="0" y="0" width="15" height="15">
<path d="M15 0H0V15H15V0Z" fill="white"/>
</mask>
<g mask="url(#mask0_166_57538)">
<path d="M3.24908 6.53744C3.13033 6.53744 3.00533 6.48744 2.91783 6.39994C2.78658 6.26244 2.74283 6.06242 2.81783 5.88742L3.98033 3.11242C4.00533 3.05617 4.01783 3.01867 4.03658 2.98742C4.96158 0.856174 6.14283 0.337422 8.2303 1.13742C8.34905 1.18117 8.4428 1.27492 8.4928 1.39367C8.5428 1.51242 8.5428 1.64367 8.4928 1.76242L6.66155 6.01242C6.58655 6.18742 6.4178 6.29369 6.23033 6.29369H4.44908C4.09283 6.29369 3.75533 6.36244 3.43033 6.49994C3.37408 6.52494 3.31158 6.53744 3.24908 6.53744ZM6.6303 1.71867C5.85533 1.71867 5.38033 2.22492 4.88658 3.37492C4.88033 3.39367 4.86783 3.41242 4.86158 3.43117L4.04283 5.37492C4.18033 5.36242 4.31158 5.35617 4.44908 5.35617H5.91783L7.42405 1.85617C7.1303 1.76242 6.8678 1.71867 6.6303 1.71867Z" fill="#020618"/>
<path d="M11.4302 6.41863C11.3864 6.41863 11.3364 6.41238 11.2927 6.39988C11.0552 6.33113 10.8052 6.29363 10.5427 6.29363H6.23017C6.07392 6.29363 5.92392 6.2124 5.83642 6.08115C5.75517 5.9499 5.73642 5.78115 5.79892 5.6374L7.61143 1.43115C7.70518 1.20615 7.98018 1.0499 8.21143 1.13115C8.28643 1.15615 8.35518 1.1874 8.43018 1.21865L9.90518 1.8374C10.7677 2.19365 11.3427 2.56865 11.7177 3.01865C11.7927 3.10615 11.8552 3.1999 11.9177 3.2999C11.9864 3.40615 12.0489 3.53115 12.0927 3.6624C12.1114 3.70615 12.1427 3.7874 12.1614 3.8749C12.3364 4.46865 12.2489 5.19365 11.8739 6.13115C11.7927 6.30613 11.6177 6.41863 11.4302 6.41863ZM6.94268 5.35615H10.5489C10.7489 5.35615 10.9427 5.3749 11.1364 5.40615C11.3114 4.8624 11.3489 4.44365 11.2489 4.10615C11.2364 4.0499 11.2239 4.0249 11.2177 3.9999C11.1802 3.8999 11.1552 3.84365 11.1239 3.79365C11.0802 3.7249 11.0489 3.66865 10.9989 3.6124C10.7302 3.2874 10.2552 2.9874 9.54268 2.69365L8.31143 2.18115L6.94268 5.35615Z" fill="#020618"/>
<path d="M9.9375 14.2189H5.0625C4.8875 14.2189 4.725 14.2064 4.5625 14.1877C2.36875 14.0439 1.11875 12.7877 0.96875 10.5689C0.95 10.4314 0.9375 10.2627 0.9375 10.0939V8.87519C0.9375 7.46894 1.775 6.2002 3.06875 5.6377C3.5125 5.4502 3.975 5.35645 4.45625 5.35645H10.5562C10.9125 5.35645 11.2563 5.40645 11.575 5.50645C13.0438 5.9502 14.075 7.33769 14.075 8.87519V10.0939C14.075 10.2314 14.0687 10.3627 14.0625 10.4877C13.925 12.9314 12.5 14.2189 9.9375 14.2189ZM4.45 6.29394C4.09375 6.29394 3.75625 6.36269 3.43125 6.50019C2.48125 6.91269 1.86875 7.84394 1.86875 8.87519V10.0939C1.86875 10.2252 1.88125 10.3564 1.89375 10.4814C2.0125 12.2627 2.8875 13.1377 4.64375 13.2564C4.8 13.2752 4.925 13.2877 5.05625 13.2877H9.93125C11.9938 13.2877 13.0062 12.3814 13.1062 10.4439C13.1125 10.3314 13.1187 10.2189 13.1187 10.0939V8.87519C13.1187 7.74394 12.3625 6.73144 11.2875 6.40019C11.05 6.33144 10.8 6.29394 10.5375 6.29394H4.45Z" fill="#020618"/>
<path d="M1.39844 9.34387C1.14219 9.34387 0.929688 9.13137 0.929688 8.87512V7.04387C0.929688 5.07512 2.32344 3.37512 4.24844 3.00012C4.41719 2.96887 4.59219 3.03137 4.70469 3.16262C4.81094 3.29387 4.84219 3.48137 4.77344 3.63762L3.67969 6.25012C3.62969 6.36262 3.54219 6.45012 3.43594 6.50012C2.48594 6.91262 1.87344 7.84387 1.87344 8.87512C1.86719 9.13137 1.66094 9.34387 1.39844 9.34387ZM3.49844 4.26262C2.69844 4.71262 2.11719 5.50012 1.93594 6.41887C2.21094 6.13762 2.52969 5.90012 2.89219 5.72512L3.49844 4.26262Z" fill="#020618"/>
<path d="M13.5987 9.34362C13.3425 9.34362 13.13 9.13112 13.13 8.87487C13.13 7.74362 12.3737 6.73112 11.2987 6.39987C11.1737 6.36237 11.0675 6.27487 11.0112 6.15611C10.955 6.03736 10.9487 5.89986 10.9987 5.78111C11.2925 5.04986 11.3675 4.51861 11.2487 4.10611C11.2362 4.04986 11.2237 4.02486 11.2175 3.99986C11.1362 3.81861 11.18 3.60611 11.3237 3.46861C11.4675 3.33111 11.6862 3.29986 11.8612 3.39361C13.2237 4.10611 14.0675 5.50611 14.0675 7.04362V8.87487C14.0675 9.13112 13.855 9.34362 13.5987 9.34362ZM12.03 5.68111C12.4237 5.86236 12.7737 6.11861 13.0675 6.42487C12.9487 5.81236 12.655 5.25611 12.2237 4.81861C12.1925 5.08111 12.13 5.36861 12.03 5.68111Z" fill="#020618"/>
</g>
</g>
</g>
<defs>
<clipPath id="clip0_166_57538">
<rect width="15" height="15" fill="white"/>
</clipPath>
<clipPath id="clip1_166_57538">
<rect width="15" height="15" fill="white"/>
</clipPath>
</defs>
</svg>
