<svg width="15" height="15" viewBox="0 0 15 15" fill="none" xmlns="http://www.w3.org/2000/svg">
<g clip-path="url(#clip0_182_19007)">
<mask id="mask0_182_19007" style="mask-type:luminance" maskUnits="userSpaceOnUse" x="0" y="0" width="15" height="15">
<path d="M15 0H0V15H15V0Z" fill="white"/>
</mask>
<g mask="url(#mask0_182_19007)">
<path d="M10.4688 4.84375H4.53125C4.275 4.84375 4.0625 4.63125 4.0625 4.375V3.125C4.0625 1.525 4.80625 0.78125 6.40625 0.78125H8.59375C10.1937 0.78125 10.9375 1.525 10.9375 3.125V4.375C10.9375 4.63125 10.725 4.84375 10.4688 4.84375ZM5 3.90625H10V3.125C10 2.0625 9.65625 1.71875 8.59375 1.71875H6.40625C5.34375 1.71875 5 2.0625 5 3.125V3.90625Z" fill="black"/>
<path d="M8.125 14.2188H6.875C5.3625 14.2188 4.53125 13.3875 4.53125 11.875V9.375C4.53125 9.11875 4.74375 8.90625 5 8.90625H10C10.2562 8.90625 10.4688 9.11875 10.4688 9.375V11.875C10.4688 13.3875 9.6375 14.2188 8.125 14.2188ZM5.46875 9.84375V11.875C5.46875 12.8625 5.8875 13.2812 6.875 13.2812H8.125C9.1125 13.2812 9.53125 12.8625 9.53125 11.875V9.84375H5.46875Z" fill="black"/>
<path d="M11.25 11.7188H10C9.74375 11.7188 9.53125 11.5062 9.53125 11.25V9.84375H5.46875V11.25C5.46875 11.5062 5.25625 11.7188 5 11.7188H3.75C2.2375 11.7188 1.40625 10.8875 1.40625 9.375V6.25C1.40625 4.7375 2.2375 3.90625 3.75 3.90625H11.25C12.7625 3.90625 13.5938 4.7375 13.5938 6.25V9.375C13.5938 10.8875 12.7625 11.7188 11.25 11.7188ZM10.4688 10.7812H11.25C12.2375 10.7812 12.6562 10.3625 12.6562 9.375V6.25C12.6562 5.2625 12.2375 4.84375 11.25 4.84375H3.75C2.7625 4.84375 2.34375 5.2625 2.34375 6.25V9.375C2.34375 10.3625 2.7625 10.7812 3.75 10.7812H4.53125V9.375C4.53125 9.11875 4.74375 8.90625 5 8.90625H10C10.2563 8.90625 10.4688 9.11875 10.4688 9.375V10.7812Z" fill="black"/>
<path d="M10.625 9.84375H4.375C4.11875 9.84375 3.90625 9.63125 3.90625 9.375C3.90625 9.11875 4.11875 8.90625 4.375 8.90625H10.625C10.8812 8.90625 11.0938 9.11875 11.0938 9.375C11.0938 9.63125 10.8812 9.84375 10.625 9.84375Z" fill="black"/>
<path d="M6.25 7.34375H4.375C4.11875 7.34375 3.90625 7.13125 3.90625 6.875C3.90625 6.61875 4.11875 6.40625 4.375 6.40625H6.25C6.50625 6.40625 6.71875 6.61875 6.71875 6.875C6.71875 7.13125 6.50625 7.34375 6.25 7.34375Z" fill="black"/>
</g>
</g>
<defs>
<clipPath id="clip0_182_19007">
<rect width="15" height="15" fill="white"/>
</clipPath>
</defs>
</svg>
