<svg width="15" height="15" viewBox="0 0 15 15" fill="none" xmlns="http://www.w3.org/2000/svg">
<g clip-path="url(#clip0_63_2808)">
<mask id="mask0_63_2808" style="mask-type:luminance" maskUnits="userSpaceOnUse" x="0" y="0" width="15" height="15">
<path d="M15 0H0V15H15V0Z" fill="white"/>
</mask>
<g mask="url(#mask0_63_2808)">
<path d="M7.49981 8.313C7.41856 8.313 7.33731 8.29431 7.26231 8.25056L1.7436 5.0568C1.5186 4.92555 1.44358 4.63803 1.57483 4.41303C1.70608 4.18803 1.98733 4.11302 2.21858 4.24427L7.49981 7.3005L12.7498 4.26304C12.9748 4.13179 13.2623 4.21305 13.3936 4.4318C13.5248 4.6568 13.4436 4.94428 13.2248 5.07553L7.74363 8.25056C7.66238 8.28806 7.58106 8.313 7.49981 8.313Z" fill="black"/>
<path d="M7.5 13.9744C7.24375 13.9744 7.03125 13.7619 7.03125 13.5057V7.83691C7.03125 7.58066 7.24375 7.36816 7.5 7.36816C7.75625 7.36816 7.96875 7.58066 7.96875 7.83691V13.5057C7.96875 13.7619 7.75625 13.9744 7.5 13.9744Z" fill="black"/>
<path d="M7.50012 14.2187C6.95012 14.2187 6.40637 14.1 5.97513 13.8625L2.63763 12.0062C1.73138 11.5062 1.02515 10.3 1.02515 9.2625V5.73124C1.02515 4.69374 1.73138 3.49376 2.63763 2.98751L5.97513 1.1375C6.83137 0.6625 8.16887 0.6625 9.02512 1.1375L12.3626 2.99373C13.2689 3.49373 13.9751 4.69999 13.9751 5.73749V9.26875C13.9751 10.3062 13.2689 11.5062 12.3626 12.0125L9.02512 13.8625C8.59387 14.1 8.05012 14.2187 7.50012 14.2187ZM7.50012 1.71874C7.10637 1.71874 6.71887 1.8 6.43137 1.95625L3.09389 3.81248C2.49389 4.14998 1.96265 5.04374 1.96265 5.73749V9.26875C1.96265 9.95625 2.49389 10.8562 3.09389 11.1937L6.43137 13.05C7.00012 13.3687 8.00012 13.3687 8.56887 13.05L11.9064 11.1937C12.5064 10.8562 13.0376 9.9625 13.0376 9.26875V5.73749C13.0376 5.04999 12.5064 4.14998 11.9064 3.81248L8.56887 1.95625C8.28137 1.8 7.89387 1.71874 7.50012 1.71874Z" fill="black"/>
<path d="M10.6252 8.74406C10.369 8.74406 10.1565 8.53156 10.1565 8.27531V6.26287L4.45649 2.97534C4.23149 2.84409 4.15647 2.55658 4.28772 2.33783C4.41897 2.11283 4.70024 2.03782 4.92524 2.16907L10.8565 5.5941C11.0002 5.67535 11.094 5.83157 11.094 6.00032V8.28787C11.094 8.53162 10.8815 8.74406 10.6252 8.74406Z" fill="black"/>
</g>
</g>
<defs>
<clipPath id="clip0_63_2808">
<rect width="15" height="15" fill="white"/>
</clipPath>
</defs>
</svg>
