<svg width="15" height="15" viewBox="0 0 15 15" fill="none" xmlns="http://www.w3.org/2000/svg">
<g clip-path="url(#clip0_265_9047)">
<mask id="mask0_265_9047" style="mask-type:luminance" maskUnits="userSpaceOnUse" x="0" y="0" width="15" height="15">
<path d="M15 0H0V15H15V0Z" fill="white"/>
</mask>
<g mask="url(#mask0_265_9047)">
<path d="M4.375 9.18156C4.11875 9.18156 3.90625 8.96906 3.90625 8.71281V6.70656C3.90625 6.45031 4.11875 6.23779 4.375 6.23779C4.63125 6.23779 4.84375 6.45031 4.84375 6.70656V8.71281C4.84375 8.97531 4.63125 9.18156 4.375 9.18156Z" fill="#020618"/>
<path d="M7.5 10.2688C7.24375 10.2688 7.03125 10.0563 7.03125 9.8V5.625C7.03125 5.36875 7.24375 5.15625 7.5 5.15625C7.75625 5.15625 7.96875 5.36875 7.96875 5.625V9.8C7.96875 10.0563 7.75625 10.2688 7.5 10.2688Z" fill="#020618"/>
<path d="M10.625 9.18156C10.3688 9.18156 10.1562 8.96906 10.1562 8.71281V6.70656C10.1562 6.45031 10.3688 6.23779 10.625 6.23779C10.8812 6.23779 11.0938 6.45031 11.0938 6.70656V8.71281C11.0938 8.97531 10.8812 9.18156 10.625 9.18156Z" fill="#020618"/>
<path d="M9.375 14.2188H5.625C2.23125 14.2188 0.78125 12.7687 0.78125 9.375V5.625C0.78125 2.23125 2.23125 0.78125 5.625 0.78125H9.375C12.7687 0.78125 14.2188 2.23125 14.2188 5.625V9.375C14.2188 12.7687 12.7687 14.2188 9.375 14.2188ZM5.625 1.71875C2.74375 1.71875 1.71875 2.74375 1.71875 5.625V9.375C1.71875 12.2563 2.74375 13.2812 5.625 13.2812H9.375C12.2563 13.2812 13.2812 12.2563 13.2812 9.375V5.625C13.2812 2.74375 12.2563 1.71875 9.375 1.71875H5.625Z" fill="#020618"/>
</g>
</g>
<defs>
<clipPath id="clip0_265_9047">
<rect width="15" height="15" fill="white"/>
</clipPath>
</defs>
</svg>
