<svg width="15" height="15" viewBox="0 0 15 15" fill="none" xmlns="http://www.w3.org/2000/svg">
<mask id="mask0_53_11426" style="mask-type:luminance" maskUnits="userSpaceOnUse" x="0" y="0" width="15" height="15">
<path d="M15 0H0V15H15V0Z" fill="white"/>
</mask>
<g mask="url(#mask0_53_11426)">
<path d="M9.20177 14.2194H5.83307C5.43307 14.2194 5.08305 14.1944 4.7643 14.1506C4.50805 14.1131 4.32679 13.8756 4.36429 13.6194C4.40179 13.3631 4.63307 13.1756 4.89557 13.2194C5.17057 13.2569 5.47681 13.2756 5.82681 13.2756H9.19558C11.7518 13.2756 12.6581 12.3693 12.6581 9.81309V7.00684C12.6581 6.75059 12.8706 6.53809 13.1268 6.53809C13.3831 6.53809 13.5956 6.75059 13.5956 7.00684V9.81309C13.6018 12.9006 12.283 14.2194 9.20177 14.2194Z" fill="black"/>
<path d="M1.89844 10.1693C1.64219 10.1693 1.42969 9.95675 1.42969 9.7005V7.01294C1.42969 6.75669 1.64219 6.54419 1.89844 6.54419C2.15469 6.54419 2.36719 6.75669 2.36719 7.01294V9.7005C2.36719 9.95675 2.15469 10.1693 1.89844 10.1693Z" fill="black"/>
<path d="M7.51844 7.96875C6.83094 7.96875 6.20593 7.7 5.76218 7.20625C5.31843 6.7125 5.11218 6.06874 5.18093 5.38124L5.59971 1.20628C5.62471 0.968781 5.82471 0.78125 6.06846 0.78125H8.98719C9.23094 0.78125 9.43094 0.962531 9.45594 1.20628L9.87469 5.38124C9.94344 6.06874 9.73719 6.7125 9.29344 7.20625C8.83094 7.7 8.20594 7.96875 7.51844 7.96875ZM6.48094 1.71875L6.10596 5.47501C6.06221 5.89376 6.1872 6.2875 6.44969 6.575C6.98094 7.1625 8.04344 7.1625 8.57469 6.575C8.83719 6.28125 8.96219 5.88751 8.91844 5.47501L8.54344 1.71875H6.48094Z" fill="black"/>
<path d="M11.4552 7.96875C10.1865 7.96875 9.05523 6.94375 8.92398 5.68123L8.48648 1.29998C8.47398 1.16873 8.51773 1.0375 8.60523 0.9375C8.69273 0.8375 8.81773 0.78125 8.95523 0.78125H10.8615C12.699 0.78125 13.5552 1.55 13.8115 3.4375L13.9865 5.17502C14.0615 5.91252 13.8365 6.61256 13.3552 7.14381C12.874 7.67506 12.199 7.96875 11.4552 7.96875ZM9.47398 1.71875L9.86148 5.58746C9.94273 6.36869 10.674 7.03125 11.4552 7.03125C11.9302 7.03125 12.3552 6.85006 12.6615 6.51881C12.9615 6.18753 13.099 5.74378 13.0552 5.26878L12.8802 3.55003C12.6865 2.13753 12.2302 1.71875 10.8615 1.71875H9.47398Z" fill="black"/>
<path d="M3.54539 7.96875C2.80164 7.96875 2.12666 7.67506 1.64541 7.14381C1.16416 6.61256 0.939149 5.91252 1.01415 5.17502L1.18917 3.45627C1.45167 1.55002 2.30791 0.78125 4.14541 0.78125H6.05164C6.18289 0.78125 6.30789 0.8375 6.40164 0.9375C6.48914 1.0375 6.53289 1.16873 6.52039 1.29998L6.08289 5.68123C5.94539 6.94375 4.80789 7.96875 3.54539 7.96875ZM4.13915 1.71875C2.7704 1.71875 2.31416 2.13122 2.11416 3.56247L1.94539 5.26253C1.89539 5.73753 2.03914 6.18128 2.33914 6.5125C2.63914 6.84375 3.07039 7.025 3.54539 7.025C4.33289 7.025 5.06413 6.36256 5.13913 5.58128L5.52667 1.71249H4.13915V1.71875Z" fill="black"/>
<path d="M3.125 14.844C2.25 14.844 1.43126 14.4627 0.868756 13.794C0.862506 13.7877 0.8375 13.7628 0.81875 13.7315C0.725 13.619 0.643744 13.5065 0.581246 13.3878C0.306246 12.944 0.15625 12.419 0.15625 11.869C0.15625 10.9565 0.562518 10.1128 1.26877 9.55029C1.39377 9.45029 1.53125 9.35654 1.68125 9.27529C2.1125 9.03154 2.61875 8.89404 3.125 8.89404C3.85 8.89404 4.51877 9.14404 5.05627 9.61279C5.12502 9.66279 5.21874 9.75654 5.29999 9.84404C5.80624 10.4003 6.08749 11.1128 6.08749 11.8565C6.08749 12.4003 5.93749 12.9315 5.65624 13.3878C5.51874 13.6253 5.35001 13.8315 5.16251 13.994C5.12501 14.0315 5.08751 14.069 5.04376 14.1003C4.55001 14.5815 3.85625 14.844 3.125 14.844ZM1.54999 13.1503C1.56874 13.169 1.59999 13.2002 1.62499 13.244C1.96874 13.6502 2.53125 13.9128 3.125 13.9128C3.61875 13.9128 4.09375 13.7315 4.45625 13.4065C4.47501 13.3815 4.5 13.3565 4.53125 13.3378C4.65625 13.2315 4.76252 13.094 4.86252 12.9315C5.05627 12.6127 5.16251 12.2565 5.16251 11.8815C5.16251 11.3753 4.96876 10.8815 4.61876 10.5003C4.57501 10.4503 4.53123 10.4002 4.47498 10.3627C3.79998 9.78148 2.87499 9.69404 2.13749 10.1128C2.03749 10.169 1.94999 10.2253 1.86874 10.294C1.38124 10.6815 1.10001 11.2565 1.10001 11.8815C1.10001 12.2503 1.19999 12.6128 1.39374 12.9253C1.44374 13.0128 1.49374 13.0815 1.54999 13.144C1.54374 13.144 1.54999 13.144 1.54999 13.1503Z" fill="black"/>
<path d="M4.06406 12.3315H2.19531C1.93906 12.3315 1.72656 12.119 1.72656 11.8628C1.72656 11.6065 1.93906 11.394 2.19531 11.394H4.06406C4.32031 11.394 4.53281 11.6065 4.53281 11.8628C4.53281 12.119 4.32031 12.3315 4.06406 12.3315Z" fill="black"/>
<path d="M3.125 13.2872C2.86875 13.2872 2.65625 13.0747 2.65625 12.8185V10.9497C2.65625 10.6935 2.86875 10.481 3.125 10.481C3.38125 10.481 3.59375 10.6935 3.59375 10.9497V12.8185C3.59375 13.081 3.38125 13.2872 3.125 13.2872Z" fill="black"/>
</g>
</svg>
