<svg width="15" height="15" viewBox="0 0 15 15" fill="none" xmlns="http://www.w3.org/2000/svg">
<mask id="mask0_210_40376" style="mask-type:luminance" maskUnits="userSpaceOnUse" x="0" y="0" width="15" height="15">
<path d="M15 0H0V15H15V0Z" fill="white"/>
</mask>
<g mask="url(#mask0_210_40376)">
<path d="M12.8125 4.4C12.8125 1.88125 12.225 1.25 9.8625 1.25H5.1375C2.775 1.25 2.1875 1.88125 2.1875 4.4V11.4375C2.1875 13.1 3.1 13.4938 4.20625 12.3063L4.2125 12.3C4.725 11.7563 5.50625 11.8 5.95 12.3937L6.58125 13.2375C7.0875 13.9063 7.90625 13.9063 8.4125 13.2375L9.04375 12.3937C9.49375 11.7937 10.275 11.75 10.7875 12.3C11.9 13.4875 12.8062 13.0938 12.8062 11.4313V6.875" stroke="#020618" stroke-linecap="round" stroke-linejoin="round"/>
<path d="M5 4.375H10" stroke="#020618" stroke-linecap="round" stroke-linejoin="round"/>
<path d="M5.625 6.875H9.375" stroke="#020618" stroke-linecap="round" stroke-linejoin="round"/>
</g>
</svg>
