<svg width="10" height="10" viewBox="0 0 10 10" fill="none" xmlns="http://www.w3.org/2000/svg">
<mask id="mask0_184_30004" style="mask-type:luminance" maskUnits="userSpaceOnUse" x="0" y="0" width="10" height="10">
<path d="M10 0H0V10H10V0Z" fill="white"/>
</mask>
<g mask="url(#mask0_184_30004)">
<path d="M2.91797 5.8335H5.0013" stroke="#790728" stroke-width="0.5" stroke-miterlimit="10" stroke-linecap="round" stroke-linejoin="round"/>
<path d="M2.91797 2.48389L1.35547 0.921387" stroke="#790728" stroke-width="0.5" stroke-miterlimit="10" stroke-linecap="round" stroke-linejoin="round"/>
<path d="M2.89844 0.9375L1.33594 2.5" stroke="#790728" stroke-width="0.5" stroke-miterlimit="10" stroke-linecap="round" stroke-linejoin="round"/>
<path d="M2.91797 4.16699H6.2513" stroke="#790728" stroke-width="0.5" stroke-miterlimit="10" stroke-linecap="round" stroke-linejoin="round"/>
<path d="M8.75 5V6.66667" stroke="#790728" stroke-width="0.5" stroke-miterlimit="10" stroke-linecap="round" stroke-linejoin="round"/>
<path d="M4.16797 0.833496H6.66797C8.05547 0.908496 8.7513 1.421 8.7513 3.32933" stroke="#790728" stroke-width="0.5" stroke-miterlimit="10" stroke-linecap="round" stroke-linejoin="round"/>
<path d="M1.25 3.75439V6.65857C1.25 8.32941 1.66667 9.16691 3.75 9.16691H5C5.07083 9.16691 6.18333 9.16691 6.25 9.16691" stroke="#790728" stroke-width="0.5" stroke-miterlimit="10" stroke-linecap="round" stroke-linejoin="round"/>
<path d="M8.75 6.66699L6.25 9.16699V7.91699C6.25 7.08366 6.66667 6.66699 7.5 6.66699H8.75Z" stroke="#790728" stroke-width="0.5" stroke-linecap="round" stroke-linejoin="round"/>
</g>
</svg>
