<svg width="15" height="15" viewBox="0 0 15 15" fill="none" xmlns="http://www.w3.org/2000/svg">
<g clip-path="url(#clip0_223_483)">
<mask id="mask0_223_483" style="mask-type:luminance" maskUnits="userSpaceOnUse" x="0" y="0" width="15" height="15">
<path d="M15 0H0V15H15V0Z" fill="white"/>
</mask>
<g mask="url(#mask0_223_483)">
<path d="M5.6375 1.7751L2.26875 4.4001C1.70625 4.8376 1.25 5.76885 1.25 6.47513V11.1064C1.25 12.5564 2.43125 13.7439 3.88125 13.7439H11.1188C12.5688 13.7439 13.75 12.5564 13.75 11.1126V6.56263C13.75 5.80635 13.2438 4.8376 12.625 4.40635L8.7625 1.7001C7.8875 1.0876 6.48125 1.11885 5.6375 1.7751Z" stroke="black" stroke-linecap="round" stroke-linejoin="round"/>
<path d="M10.3125 10.3125L7.6875 7.6875L6.6875 9.1875L4.6875 7.1875" stroke="black" stroke-linecap="round" stroke-linejoin="round"/>
<path d="M9.0625 10.3125H10.3125V9.0625" stroke="black" stroke-linecap="round" stroke-linejoin="round"/>
</g>
</g>
<defs>
<clipPath id="clip0_223_483">
<rect width="15" height="15" fill="white"/>
</clipPath>
</defs>
</svg>
