<svg width="15" height="24" viewBox="0 0 15 24" fill="none" xmlns="http://www.w3.org/2000/svg">
<mask id="mask0_70_1803" style="mask-type:luminance" maskUnits="userSpaceOnUse" x="0" y="4" width="15" height="16">
<path d="M15 4.5H0V19.5H15V4.5Z" fill="white"/>
</mask>
<g mask="url(#mask0_70_1803)">
<path d="M5 11.8438H3.125C2.86875 11.8438 2.65625 11.6312 2.65625 11.375V10.125C2.65625 8.4875 3.9875 7.15625 5.625 7.15625H6.875C7.13125 7.15625 7.34375 7.36875 7.34375 7.625V9.5C7.34375 9.75625 7.13125 9.96875 6.875 9.96875H5.625C5.5375 9.96875 5.46875 10.0375 5.46875 10.125V11.375C5.46875 11.6312 5.25625 11.8438 5 11.8438ZM3.59375 10.9062H4.53125V10.125C4.53125 9.525 5.025 9.03125 5.625 9.03125H6.40625V8.09375H5.625C4.50625 8.09375 3.59375 9.00625 3.59375 10.125V10.9062Z" fill="white"/>
<path d="M9.375 16.8438H8.125C7.86875 16.8438 7.65625 16.6312 7.65625 16.375V14.5C7.65625 14.2438 7.86875 14.0312 8.125 14.0312H9.375C9.4625 14.0312 9.53125 13.9625 9.53125 13.875V12.625C9.53125 12.3688 9.74375 12.1562 10 12.1562H11.875C12.1312 12.1562 12.3438 12.3688 12.3438 12.625V13.875C12.3438 15.5125 11.0125 16.8438 9.375 16.8438ZM8.59375 15.9062H9.375C10.4938 15.9062 11.4062 14.9938 11.4062 13.875V13.0938H10.4688V13.875C10.4688 14.475 9.975 14.9688 9.375 14.9688H8.59375V15.9062Z" fill="white"/>
<path d="M9.375 18.7188H5.625C2.23125 18.7188 0.78125 17.2688 0.78125 13.875V10.125C0.78125 6.73125 2.23125 5.28125 5.625 5.28125H9.375C12.7688 5.28125 14.2188 6.73125 14.2188 10.125V13.875C14.2188 17.2688 12.7688 18.7188 9.375 18.7188ZM5.625 6.21875C2.74375 6.21875 1.71875 7.24375 1.71875 10.125V13.875C1.71875 16.7563 2.74375 17.7812 5.625 17.7812H9.375C12.2563 17.7812 13.2812 16.7563 13.2812 13.875V10.125C13.2812 7.24375 12.2563 6.21875 9.375 6.21875H5.625Z" fill="white"/>
</g>
</svg>
