<svg width="10" height="10" viewBox="0 0 10 10" fill="none" xmlns="http://www.w3.org/2000/svg">
<g clip-path="url(#clip0_188_8188)">
<mask id="mask0_188_8188" style="mask-type:luminance" maskUnits="userSpaceOnUse" x="0" y="0" width="10" height="10">
<path d="M10 0H0V10H10V0Z" fill="white"/>
</mask>
<g mask="url(#mask0_188_8188)">
<path d="M8.85286 3.81229C7.89036 2.29979 6.48203 1.42896 4.9987 1.42896C4.25703 1.42896 3.5362 1.64562 2.87786 2.04979C2.21953 2.45812 1.62786 3.05396 1.14453 3.81229C0.727865 4.46646 0.727865 5.52896 1.14453 6.18313C2.10703 7.69979 3.51536 8.56646 4.9987 8.56646C5.74036 8.56646 6.4612 8.34979 7.11953 7.94563C7.77786 7.53729 8.36953 6.94146 8.85286 6.18313C9.26953 5.53313 9.26953 4.46646 8.85286 3.81229ZM4.9987 6.68313C4.06536 6.68313 3.31536 5.92896 3.31536 4.99979C3.31536 4.07062 4.06536 3.31646 4.9987 3.31646C5.93203 3.31646 6.68203 4.07062 6.68203 4.99979C6.68203 5.92896 5.93203 6.68313 4.9987 6.68313Z" fill="#790728"/>
<path d="M5 3.80859C4.34583 3.80859 3.8125 4.34192 3.8125 5.00025C3.8125 5.65442 4.34583 6.18775 5 6.18775C5.65417 6.18775 6.19167 5.65442 6.19167 5.00025C6.19167 4.34609 5.65417 3.80859 5 3.80859Z" fill="#790728"/>
</g>
</g>
<defs>
<clipPath id="clip0_188_8188">
<rect width="10" height="10" fill="white"/>
</clipPath>
</defs>
</svg>
