<svg width="15" height="15" viewBox="0 0 15 15" fill="none" xmlns="http://www.w3.org/2000/svg">
<g clip-path="url(#clip0_102_22317)">
<mask id="mask0_102_22317" style="mask-type:luminance" maskUnits="userSpaceOnUse" x="0" y="0" width="15" height="15">
<path d="M15 0H0V15H15V0Z" fill="white"/>
</mask>
<g mask="url(#mask0_102_22317)">
<path d="M5 1.25V3.125" stroke="black" stroke-miterlimit="10" stroke-linecap="round" stroke-linejoin="round"/>
<path d="M10 1.25V3.125" stroke="black" stroke-miterlimit="10" stroke-linecap="round" stroke-linejoin="round"/>
<path d="M2.1875 5.68115H12.8125" stroke="black" stroke-miterlimit="10" stroke-linecap="round" stroke-linejoin="round"/>
<path d="M13.125 5.3125V10.625C13.125 12.5 12.1875 13.75 10 13.75H5C2.8125 13.75 1.875 12.5 1.875 10.625V5.3125C1.875 3.4375 2.8125 2.1875 5 2.1875H10C12.1875 2.1875 13.125 3.4375 13.125 5.3125Z" stroke="black" stroke-miterlimit="10" stroke-linecap="round" stroke-linejoin="round"/>
<path d="M7.5 8.56201H7.50563" stroke="black" stroke-linecap="round" stroke-linejoin="round"/>
<path d="M5.1875 8.56201H5.19311" stroke="black" stroke-linecap="round" stroke-linejoin="round"/>
<path d="M5.1875 10.437H5.19311" stroke="black" stroke-linecap="round" stroke-linejoin="round"/>
</g>
</g>
<defs>
<clipPath id="clip0_102_22317">
<rect width="15" height="15" fill="white"/>
</clipPath>
</defs>
</svg>
