<svg width="15" height="15" viewBox="0 0 15 15" fill="none" xmlns="http://www.w3.org/2000/svg">
<mask id="mask0_63_2791" style="mask-type:luminance" maskUnits="userSpaceOnUse" x="0" y="0" width="15" height="15">
<path d="M15 0H0V15H15V0Z" fill="white"/>
</mask>
<g mask="url(#mask0_63_2791)">
<path d="M6.5625 12.4375V2.5625C6.5625 1.625 6.1625 1.25 5.16875 1.25H2.64375C1.65 1.25 1.25 1.625 1.25 2.5625V12.4375C1.25 13.375 1.65 13.75 2.64375 13.75H5.16875C6.1625 13.75 6.5625 13.375 6.5625 12.4375Z" stroke="white" stroke-linecap="round" stroke-linejoin="round"/>
<path d="M13.75 5.325V2.4875C13.75 1.60625 13.35 1.25 12.3563 1.25H9.83125C8.8375 1.25 8.4375 1.60625 8.4375 2.4875V5.31875C8.4375 6.20625 8.8375 6.55625 9.83125 6.55625H12.3563C13.35 6.5625 13.75 6.20625 13.75 5.325Z" stroke="white" stroke-linecap="round" stroke-linejoin="round"/>
<path opacity="0.4" d="M13.75 12.3563V9.83125C13.75 8.8375 13.35 8.4375 12.3563 8.4375H9.83125C8.8375 8.4375 8.4375 8.8375 8.4375 9.83125V12.3563C8.4375 13.35 8.8375 13.75 9.83125 13.75H12.3563C13.35 13.75 13.75 13.35 13.75 12.3563Z" stroke="white" stroke-linecap="round" stroke-linejoin="round"/>
</g>
</svg>
