<svg width="15" height="15" viewBox="0 0 15 15" fill="none" xmlns="http://www.w3.org/2000/svg">
<mask id="mask0_63_2894" style="mask-type:luminance" maskUnits="userSpaceOnUse" x="0" y="0" width="15" height="15">
<path d="M15 0H0V15H15V0Z" fill="white"/>
</mask>
<g mask="url(#mask0_63_2894)">
<path d="M13.1249 4.20654C13.1124 4.20654 13.0937 4.20654 13.0749 4.20654C9.76865 3.87529 6.46865 3.75029 3.19992 4.08154L1.92492 4.20654C1.66242 4.23154 1.43117 4.04404 1.40617 3.78154C1.38117 3.51904 1.56867 3.29404 1.82492 3.26904L3.09992 3.14404C6.4249 2.80654 9.79365 2.93779 13.1687 3.26904C13.4249 3.29404 13.6124 3.52529 13.5874 3.78154C13.5687 4.02529 13.3624 4.20654 13.1249 4.20654Z" fill="white"/>
<path d="M5.31248 3.575C5.28748 3.575 5.26248 3.575 5.23123 3.56875C4.98123 3.525 4.80623 3.28125 4.84998 3.03125L4.98748 2.2125C5.08748 1.6125 5.22498 0.78125 6.68122 0.78125H8.31872C9.78122 0.78125 9.91872 1.64375 10.0125 2.21875L10.15 3.03125C10.1937 3.2875 10.0187 3.53125 9.76872 3.56875C9.51247 3.6125 9.26872 3.4375 9.23122 3.1875L9.09372 2.375C9.00622 1.83125 8.98747 1.725 8.32497 1.725H6.68747C6.02498 1.725 6.01248 1.8125 5.91873 2.36875L5.77498 3.18125C5.73748 3.4125 5.53748 3.575 5.31248 3.575Z" fill="white"/>
<path d="M9.50613 14.2187H5.49363C3.31238 14.2187 3.22488 13.0125 3.15613 12.0375L2.74988 5.74374C2.73113 5.48749 2.93113 5.26249 3.18738 5.24374C3.44988 5.23124 3.66863 5.42499 3.68738 5.68124L4.09363 11.975C4.16238 12.925 4.18738 13.2812 5.49363 13.2812H9.50613C10.8186 13.2812 10.8436 12.925 10.9061 11.975L11.3124 5.68124C11.3311 5.42499 11.5561 5.23124 11.8124 5.24374C12.0686 5.26249 12.2686 5.48124 12.2499 5.74374L11.8436 12.0375C11.7749 13.0125 11.6874 14.2187 9.50613 14.2187Z" fill="white"/>
<path d="M8.53756 10.7812H6.45631C6.20005 10.7812 5.98755 10.5688 5.98755 10.3125C5.98755 10.0563 6.20005 9.84375 6.45631 9.84375H8.53756C8.79381 9.84375 9.00631 10.0563 9.00631 10.3125C9.00631 10.5688 8.79381 10.7812 8.53756 10.7812Z" fill="white"/>
<path d="M9.0625 8.28125H5.9375C5.68125 8.28125 5.46875 8.06875 5.46875 7.8125C5.46875 7.55625 5.68125 7.34375 5.9375 7.34375H9.0625C9.31875 7.34375 9.53125 7.55625 9.53125 7.8125C9.53125 8.06875 9.31875 8.28125 9.0625 8.28125Z" fill="white"/>
</g>
</svg>
