<svg width="15" height="15" viewBox="0 0 15 15" fill="none" xmlns="http://www.w3.org/2000/svg">
<g clip-path="url(#clip0_100_1171)">
<mask id="mask0_100_1171" style="mask-type:luminance" maskUnits="userSpaceOnUse" x="0" y="0" width="15" height="15">
<path d="M15 0H0V15H15V0Z" fill="white"/>
</mask>
<g mask="url(#mask0_100_1171)">
<path d="M8.12488 9.21875H7.49988C7.24363 9.21875 7.03113 9.00625 7.03113 8.75C7.03113 8.49375 7.24363 8.28125 7.49988 8.28125H8.12488C8.55613 8.28125 8.90613 7.93125 8.90613 7.5V1.71875H3.74986C3.01236 1.71875 2.33735 2.11874 1.97485 2.76249C1.84985 2.98749 1.56237 3.06876 1.33737 2.94376C1.11237 2.81876 1.0311 2.53125 1.1561 2.30625C1.6811 1.36875 2.67486 0.78125 3.74986 0.78125H9.37488C9.63113 0.78125 9.84363 0.99375 9.84363 1.25V7.5C9.84363 8.45 9.07488 9.21875 8.12488 9.21875Z" fill="black"/>
<path d="M11.875 12.9688H11.25C10.9937 12.9688 10.7812 12.7563 10.7812 12.5C10.7812 12.0688 10.4312 11.7188 10 11.7188C9.56875 11.7188 9.21875 12.0688 9.21875 12.5C9.21875 12.7563 9.00625 12.9688 8.75 12.9688H6.25C5.99375 12.9688 5.78125 12.7563 5.78125 12.5C5.78125 12.0688 5.43125 11.7188 5 11.7188C4.56875 11.7188 4.21875 12.0688 4.21875 12.5C4.21875 12.7563 4.00625 12.9688 3.75 12.9688H3.125C1.83125 12.9688 0.78125 11.9187 0.78125 10.625C0.78125 10.3688 0.99375 10.1562 1.25 10.1562C1.50625 10.1562 1.71875 10.3688 1.71875 10.625C1.71875 11.4 2.35 12.0312 3.125 12.0312H3.34374C3.54999 11.3125 4.2125 10.7812 5 10.7812C5.7875 10.7812 6.45 11.3125 6.65625 12.0312H8.35C8.55625 11.3125 9.21875 10.7812 10.0063 10.7812C10.7937 10.7812 11.4563 11.3125 11.6625 12.0312H11.875C12.65 12.0312 13.2812 11.4 13.2812 10.625V9.21875H11.875C11.275 9.21875 10.7812 8.725 10.7812 8.125V6.25C10.7812 5.65 11.2688 5.15625 11.875 5.15625L11.2063 3.9875C11.0688 3.74375 10.8062 3.59375 10.525 3.59375H9.84375V7.5C9.84375 8.45 9.075 9.21875 8.125 9.21875H7.5C7.24375 9.21875 7.03125 9.00625 7.03125 8.75C7.03125 8.49375 7.24375 8.28125 7.5 8.28125H8.125C8.55625 8.28125 8.90625 7.93125 8.90625 7.5V3.125C8.90625 2.86875 9.11875 2.65625 9.375 2.65625H10.525C11.1438 2.65625 11.7125 2.98751 12.0187 3.52501L13.0875 5.39375C13.1688 5.5375 13.1688 5.71875 13.0875 5.8625C13.0063 6.00625 12.85 6.09375 12.6813 6.09375H11.875C11.7875 6.09375 11.7188 6.1625 11.7188 6.25V8.125C11.7188 8.2125 11.7875 8.28125 11.875 8.28125H13.75C14.0063 8.28125 14.2188 8.49375 14.2188 8.75V10.625C14.2188 11.9187 13.1687 12.9688 11.875 12.9688Z" fill="black"/>
<path d="M5 14.2188C4.05 14.2188 3.28125 13.45 3.28125 12.5C3.28125 11.55 4.05 10.7812 5 10.7812C5.95 10.7812 6.71875 11.55 6.71875 12.5C6.71875 13.45 5.95 14.2188 5 14.2188ZM5 11.7188C4.56875 11.7188 4.21875 12.0688 4.21875 12.5C4.21875 12.9313 4.56875 13.2812 5 13.2812C5.43125 13.2812 5.78125 12.9313 5.78125 12.5C5.78125 12.0688 5.43125 11.7188 5 11.7188Z" fill="black"/>
<path d="M10 14.2188C9.05 14.2188 8.28125 13.45 8.28125 12.5C8.28125 11.55 9.05 10.7812 10 10.7812C10.95 10.7812 11.7188 11.55 11.7188 12.5C11.7188 13.45 10.95 14.2188 10 14.2188ZM10 11.7188C9.56875 11.7188 9.21875 12.0688 9.21875 12.5C9.21875 12.9313 9.56875 13.2812 10 13.2812C10.4313 13.2812 10.7812 12.9313 10.7812 12.5C10.7812 12.0688 10.4313 11.7188 10 11.7188Z" fill="black"/>
<path d="M13.75 9.21875H11.875C11.275 9.21875 10.7812 8.725 10.7812 8.125V6.25C10.7812 5.65 11.275 5.15625 11.875 5.15625H12.6813C12.85 5.15625 13.0063 5.24375 13.0875 5.39375L14.1562 7.26875C14.1937 7.3375 14.2188 7.41875 14.2188 7.5V8.75C14.2188 9.00625 14.0062 9.21875 13.75 9.21875ZM11.875 6.09375C11.7875 6.09375 11.7188 6.1625 11.7188 6.25V8.125C11.7188 8.2125 11.7875 8.28125 11.875 8.28125H13.2812V7.625L12.4063 6.09375H11.875Z" fill="black"/>
<path d="M5 5.46875H1.25C0.99375 5.46875 0.78125 5.25625 0.78125 5C0.78125 4.74375 0.99375 4.53125 1.25 4.53125H5C5.25625 4.53125 5.46875 4.74375 5.46875 5C5.46875 5.25625 5.25625 5.46875 5 5.46875Z" fill="black"/>
<path d="M3.75 7.34375H1.25C0.99375 7.34375 0.78125 7.13125 0.78125 6.875C0.78125 6.61875 0.99375 6.40625 1.25 6.40625H3.75C4.00625 6.40625 4.21875 6.61875 4.21875 6.875C4.21875 7.13125 4.00625 7.34375 3.75 7.34375Z" fill="black"/>
<path d="M2.5 9.21875H1.25C0.99375 9.21875 0.78125 9.00625 0.78125 8.75C0.78125 8.49375 0.99375 8.28125 1.25 8.28125H2.5C2.75625 8.28125 2.96875 8.49375 2.96875 8.75C2.96875 9.00625 2.75625 9.21875 2.5 9.21875Z" fill="black"/>
</g>
</g>
<defs>
<clipPath id="clip0_100_1171">
<rect width="15" height="15" fill="white"/>
</clipPath>
</defs>
</svg>
