<svg width="15" height="15" viewBox="0 0 15 15" fill="none" xmlns="http://www.w3.org/2000/svg">
<mask id="mask0_63_2886" style="mask-type:luminance" maskUnits="userSpaceOnUse" x="0" y="0" width="15" height="15">
<path d="M15 0H0V15H15V0Z" fill="white"/>
</mask>
<g mask="url(#mask0_63_2886)">
<path d="M9.375 14.2188H5.625C2.23125 14.2188 0.78125 12.7688 0.78125 9.375V5.625C0.78125 2.23125 2.23125 0.78125 5.625 0.78125H6.875C7.13125 0.78125 7.34375 0.99375 7.34375 1.25C7.34375 1.50625 7.13125 1.71875 6.875 1.71875H5.625C2.74375 1.71875 1.71875 2.74375 1.71875 5.625V9.375C1.71875 12.2563 2.74375 13.2812 5.625 13.2812H9.375C12.2563 13.2812 13.2812 12.2563 13.2812 9.375V8.125C13.2812 7.86875 13.4937 7.65625 13.75 7.65625C14.0063 7.65625 14.2188 7.86875 14.2188 8.125V9.375C14.2188 12.7688 12.7688 14.2188 9.375 14.2188Z" fill="black"/>
<path d="M5.31258 11.0568C4.93133 11.0568 4.58133 10.9193 4.32508 10.6693C4.01883 10.3631 3.88758 9.91931 3.95633 9.45056L4.22508 7.56931C4.27508 7.20681 4.51258 6.73806 4.76883 6.48181L9.69384 1.55684C10.9376 0.313085 12.2001 0.313085 13.4438 1.55684C14.1251 2.23809 14.4313 2.93184 14.3688 3.62559C14.3126 4.18809 14.0126 4.73809 13.4438 5.30059L8.51884 10.2256C8.26259 10.4818 7.79384 10.7193 7.43134 10.7693L5.55008 11.0381C5.46883 11.0568 5.38758 11.0568 5.31258 11.0568ZM10.3563 2.21934L5.43133 7.14431C5.31258 7.26306 5.17508 7.53806 5.15008 7.70056L4.88133 9.58181C4.85633 9.76306 4.89383 9.91306 4.98758 10.0068C5.08133 10.1006 5.23133 10.1381 5.41258 10.1131L7.29384 9.84431C7.45634 9.81931 7.73759 9.68181 7.85009 9.56306L12.7751 4.63809C13.1813 4.23184 13.3938 3.86934 13.4251 3.53184C13.4626 3.12559 13.2501 2.69434 12.7751 2.21309C11.7751 1.21309 11.0876 1.49434 10.3563 2.21934Z" fill="black"/>
<path d="M12.4063 6.14392C12.3626 6.14392 12.3188 6.13767 12.2813 6.12517C10.6376 5.66267 9.33135 4.35642 8.86885 2.71267C8.8001 2.46267 8.94385 2.20642 9.19385 2.13142C9.44385 2.06267 9.7001 2.20642 9.76885 2.45642C10.1438 3.78767 11.2001 4.84392 12.5313 5.21892C12.7813 5.28767 12.9251 5.55017 12.8563 5.80017C12.8001 6.01267 12.6126 6.14392 12.4063 6.14392Z" fill="black"/>
</g>
</svg>
