<svg width="15" height="15" viewBox="0 0 15 15" fill="none" xmlns="http://www.w3.org/2000/svg">
<g clip-path="url(#clip0_70_1721)">
<mask id="mask0_70_1721" style="mask-type:luminance" maskUnits="userSpaceOnUse" x="0" y="0" width="15" height="15">
<path d="M15 0H0V15H15V0Z" fill="white"/>
</mask>
<g mask="url(#mask0_70_1721)">
<path d="M13.125 7.34381H1.875C1.275 7.34381 0.78125 6.85006 0.78125 6.25006V4.17508C0.78125 3.75008 1.07499 3.31883 1.46874 3.16258L7.09375 0.912598C7.33125 0.818848 7.66875 0.818848 7.90625 0.912598L13.5312 3.16258C13.925 3.31883 14.2188 3.75633 14.2188 4.17508V6.25006C14.2188 6.85006 13.725 7.34381 13.125 7.34381ZM7.5 1.7751C7.475 1.7751 7.45 1.77507 7.4375 1.78132L1.81873 4.03134C1.78123 4.05009 1.71875 4.13133 1.71875 4.17508V6.25006C1.71875 6.33756 1.7875 6.40631 1.875 6.40631H13.125C13.2125 6.40631 13.2812 6.33756 13.2812 6.25006V4.17508C13.2812 4.13133 13.225 4.05009 13.1812 4.03134L7.55625 1.78132C7.54375 1.77507 7.525 1.7751 7.5 1.7751Z" fill="white"/>
<path d="M13.75 14.2188H1.25C0.99375 14.2188 0.78125 14.0062 0.78125 13.75V11.875C0.78125 11.275 1.275 10.7812 1.875 10.7812H13.125C13.725 10.7812 14.2188 11.275 14.2188 11.875V13.75C14.2188 14.0062 14.0063 14.2188 13.75 14.2188ZM1.71875 13.2812H13.2812V11.875C13.2812 11.7875 13.2125 11.7188 13.125 11.7188H1.875C1.7875 11.7188 1.71875 11.7875 1.71875 11.875V13.2812Z" fill="white"/>
<path d="M2.5 11.7188C2.24375 11.7188 2.03125 11.5062 2.03125 11.25V6.875C2.03125 6.61875 2.24375 6.40625 2.5 6.40625C2.75625 6.40625 2.96875 6.61875 2.96875 6.875V11.25C2.96875 11.5062 2.75625 11.7188 2.5 11.7188Z" fill="white"/>
<path d="M5 11.7188C4.74375 11.7188 4.53125 11.5062 4.53125 11.25V6.875C4.53125 6.61875 4.74375 6.40625 5 6.40625C5.25625 6.40625 5.46875 6.61875 5.46875 6.875V11.25C5.46875 11.5062 5.25625 11.7188 5 11.7188Z" fill="white"/>
<path d="M7.5 11.7188C7.24375 11.7188 7.03125 11.5062 7.03125 11.25V6.875C7.03125 6.61875 7.24375 6.40625 7.5 6.40625C7.75625 6.40625 7.96875 6.61875 7.96875 6.875V11.25C7.96875 11.5062 7.75625 11.7188 7.5 11.7188Z" fill="white"/>
<path d="M10 11.7188C9.74375 11.7188 9.53125 11.5062 9.53125 11.25V6.875C9.53125 6.61875 9.74375 6.40625 10 6.40625C10.2563 6.40625 10.4688 6.61875 10.4688 6.875V11.25C10.4688 11.5062 10.2563 11.7188 10 11.7188Z" fill="white"/>
<path d="M12.5 11.7188C12.2438 11.7188 12.0312 11.5062 12.0312 11.25V6.875C12.0312 6.61875 12.2438 6.40625 12.5 6.40625C12.7563 6.40625 12.9688 6.61875 12.9688 6.875V11.25C12.9688 11.5062 12.7563 11.7188 12.5 11.7188Z" fill="white"/>
<path d="M14.375 14.2188H0.625C0.36875 14.2188 0.15625 14.0063 0.15625 13.75C0.15625 13.4938 0.36875 13.2812 0.625 13.2812H14.375C14.6313 13.2812 14.8438 13.4938 14.8438 13.75C14.8438 14.0063 14.6313 14.2188 14.375 14.2188Z" fill="white"/>
<path d="M7.5 5.78125C6.725 5.78125 6.09375 5.15 6.09375 4.375C6.09375 3.6 6.725 2.96875 7.5 2.96875C8.275 2.96875 8.90625 3.6 8.90625 4.375C8.90625 5.15 8.275 5.78125 7.5 5.78125ZM7.5 3.90625C7.24375 3.90625 7.03125 4.11875 7.03125 4.375C7.03125 4.63125 7.24375 4.84375 7.5 4.84375C7.75625 4.84375 7.96875 4.63125 7.96875 4.375C7.96875 4.11875 7.75625 3.90625 7.5 3.90625Z" fill="white"/>
</g>
</g>
<defs>
<clipPath id="clip0_70_1721">
<rect width="15" height="15" fill="white"/>
</clipPath>
</defs>
</svg>
