<svg width="15" height="15" viewBox="0 0 15 15" fill="none" xmlns="http://www.w3.org/2000/svg">
<g clip-path="url(#clip0_70_462)">
<mask id="mask0_70_462" style="mask-type:luminance" maskUnits="userSpaceOnUse" x="0" y="0" width="15" height="15">
<path d="M15 0H0V15H15V0Z" fill="white"/>
</mask>
<g mask="url(#mask0_70_462)">
<path d="M7.81247 14.2194H2.54995C1.5687 14.2194 0.762451 13.4319 0.762451 12.4569V3.18192C0.762451 2.22567 1.1187 1.48192 1.7687 1.07567C2.42495 0.663166 3.27495 0.675666 4.1562 1.11317L6.93122 2.47567C7.68747 2.85067 8.28122 3.79442 8.28122 4.63192V13.7507C8.28122 14.0069 8.06872 14.2194 7.81247 14.2194ZM2.84995 1.71942C2.6312 1.71942 2.4312 1.76942 2.26245 1.87567C1.89995 2.10067 1.69995 2.56942 1.69995 3.18192V12.4569C1.69995 12.9132 2.0812 13.2819 2.54995 13.2819H7.34372V4.63192C7.34372 4.15067 6.95622 3.53192 6.51247 3.31942L3.73745 1.95692C3.4187 1.80067 3.1187 1.71942 2.84995 1.71942Z" fill="white"/>
<path d="M11.7562 14.2183H7.8125C7.55625 14.2183 7.34375 14.0058 7.34375 13.7496V6.51206C7.34375 6.36831 7.40625 6.23706 7.51875 6.14956C7.63125 6.06206 7.76875 6.02456 7.9125 6.05581L8.20625 6.11831L12.2937 7.03081C13.5375 7.30581 14.1625 8.03706 14.2 9.28081C14.2062 9.28081 14.2062 9.34331 14.2062 9.41206V11.7746C14.2 13.3746 13.3562 14.2183 11.7562 14.2183ZM8.28125 13.2808H11.7562C12.8562 13.2808 13.2625 12.8746 13.2625 11.7746V9.36206C13.2312 8.50581 12.9062 8.12456 12.0875 7.94331L8.28125 7.09331V13.2808Z" fill="white"/>
<path d="M5.60625 6.09375H3.4375C3.18125 6.09375 2.96875 5.88125 2.96875 5.625C2.96875 5.36875 3.18125 5.15625 3.4375 5.15625H5.60625C5.8625 5.15625 6.075 5.36875 6.075 5.625C6.075 5.88125 5.86875 6.09375 5.60625 6.09375Z" fill="white"/>
<path d="M5.60625 8.59375H3.4375C3.18125 8.59375 2.96875 8.38125 2.96875 8.125C2.96875 7.86875 3.18125 7.65625 3.4375 7.65625H5.60625C5.8625 7.65625 6.075 7.86875 6.075 8.125C6.075 8.38125 5.86875 8.59375 5.60625 8.59375Z" fill="white"/>
<path d="M9.51245 11.0941C8.4812 11.0941 7.63745 10.2503 7.63745 9.21906V6.57531C7.63745 6.43156 7.69995 6.30031 7.81245 6.20654C7.92495 6.11279 8.0687 6.08154 8.2062 6.11279L11.0187 6.74406C11.2312 6.79406 11.3875 6.98156 11.3875 7.20031V9.21281C11.3875 10.2503 10.55 11.0941 9.51245 11.0941ZM8.57495 7.16281V9.21906C8.57495 9.73781 8.9937 10.1566 9.51245 10.1566C10.0312 10.1566 10.45 9.73781 10.45 9.21906V7.58156L8.57495 7.16281Z" fill="white"/>
<path d="M12.325 11.0944C11.2937 11.0944 10.45 10.2506 10.45 9.21938V7.20688C10.45 7.06313 10.5125 6.93188 10.625 6.84438C10.7375 6.75688 10.8812 6.71938 11.0187 6.75063L12.2875 7.03188C13.5312 7.30688 14.1562 8.03813 14.1937 9.28188C14.1937 9.29438 14.1937 9.30688 14.1937 9.31938C14.1437 10.3131 13.325 11.0944 12.325 11.0944ZM11.3875 7.78813V9.21938C11.3875 9.73813 11.8062 10.1569 12.325 10.1569C12.8187 10.1569 13.225 9.77563 13.2562 9.28813C13.225 8.50063 12.9 8.12563 12.0875 7.94438L11.3875 7.78813Z" fill="white"/>
</g>
</g>
<defs>
<clipPath id="clip0_70_462">
<rect width="15" height="15" fill="white"/>
</clipPath>
</defs>
</svg>
