<svg width="10" height="10" viewBox="0 0 10 10" fill="none" xmlns="http://www.w3.org/2000/svg">
<g clip-path="url(#clip0_184_25061)">
<mask id="mask0_184_25061" style="mask-type:luminance" maskUnits="userSpaceOnUse" x="0" y="0" width="10" height="10">
<path d="M10 0H0V10H10V0Z" fill="white"/>
</mask>
<g mask="url(#mask0_184_25061)">
<path d="M4.9987 0.833496C2.70286 0.833496 0.832031 2.70433 0.832031 5.00016C0.832031 7.296 2.70286 9.16683 4.9987 9.16683C7.29453 9.16683 9.16536 7.296 9.16536 5.00016C9.16536 2.70433 7.29453 0.833496 4.9987 0.833496ZM6.99036 4.04183L4.62786 6.40433C4.56953 6.46266 4.49036 6.496 4.40703 6.496C4.3237 6.496 4.24453 6.46266 4.1862 6.40433L3.00703 5.22516C2.8862 5.10433 2.8862 4.90433 3.00703 4.7835C3.12786 4.66266 3.32786 4.66266 3.4487 4.7835L4.40703 5.74183L6.5487 3.60016C6.66953 3.47933 6.86953 3.47933 6.99036 3.60016C7.1112 3.721 7.1112 3.91683 6.99036 4.04183Z" fill="#790728"/>
</g>
</g>
<defs>
<clipPath id="clip0_184_25061">
<rect width="10" height="10" fill="white"/>
</clipPath>
</defs>
</svg>
