<svg width="15" height="15" viewBox="0 0 15 15" fill="none" xmlns="http://www.w3.org/2000/svg">
<g clip-path="url(#clip0_70_1708)">
<mask id="mask0_70_1708" style="mask-type:luminance" maskUnits="userSpaceOnUse" x="0" y="0" width="15" height="15">
<path d="M15 0H0V15H15V0Z" fill="white"/>
</mask>
<g mask="url(#mask0_70_1708)">
<path d="M4.2998 11.8128C4.04355 11.8128 3.83105 11.6003 3.83105 11.344V10.0503C3.83105 9.79404 4.04355 9.58154 4.2998 9.58154C4.55605 9.58154 4.76855 9.79404 4.76855 10.0503V11.344C4.76855 11.6065 4.55605 11.8128 4.2998 11.8128Z" fill="white"/>
<path d="M7.5 11.8125C7.24375 11.8125 7.03125 11.6 7.03125 11.3437V8.75C7.03125 8.49375 7.24375 8.28125 7.5 8.28125C7.75625 8.28125 7.96875 8.49375 7.96875 8.75V11.3437C7.96875 11.6062 7.75625 11.8125 7.5 11.8125Z" fill="white"/>
<path d="M10.7 11.8123C10.4437 11.8123 10.2312 11.5998 10.2312 11.3436V7.45605C10.2312 7.1998 10.4437 6.9873 10.7 6.9873C10.9562 6.9873 11.1687 7.1998 11.1687 7.45605V11.3436C11.1687 11.6061 10.9625 11.8123 10.7 11.8123Z" fill="white"/>
<path d="M4.29998 8.23688C4.08748 8.23688 3.89998 8.09313 3.84373 7.88063C3.78123 7.63063 3.93123 7.37438 4.18748 7.31188C6.4875 6.73688 8.5125 5.48065 10.0563 3.6869L10.3438 3.3494C10.5125 3.15565 10.8063 3.13065 11.0063 3.2994C11.2 3.46815 11.225 3.7619 11.0563 3.9619L10.7688 4.2994C9.1 6.2494 6.9 7.60563 4.41248 8.22438C4.37498 8.23688 4.33748 8.23688 4.29998 8.23688Z" fill="white"/>
<path d="M10.6999 5.95C10.4437 5.95 10.2312 5.7375 10.2312 5.48125V4.125H8.86865C8.6124 4.125 8.3999 3.9125 8.3999 3.65625C8.3999 3.4 8.6124 3.1875 8.86865 3.1875H10.6999C10.9562 3.1875 11.1687 3.4 11.1687 3.65625V5.4875C11.1687 5.74375 10.9624 5.95 10.6999 5.95Z" fill="white"/>
<path d="M9.375 14.2188H5.625C2.23125 14.2188 0.78125 12.7688 0.78125 9.375V5.625C0.78125 2.23125 2.23125 0.78125 5.625 0.78125H9.375C12.7688 0.78125 14.2188 2.23125 14.2188 5.625V9.375C14.2188 12.7688 12.7688 14.2188 9.375 14.2188ZM5.625 1.71875C2.74375 1.71875 1.71875 2.74375 1.71875 5.625V9.375C1.71875 12.2563 2.74375 13.2812 5.625 13.2812H9.375C12.2563 13.2812 13.2812 12.2563 13.2812 9.375V5.625C13.2812 2.74375 12.2563 1.71875 9.375 1.71875H5.625Z" fill="white"/>
</g>
</g>
<defs>
<clipPath id="clip0_70_1708">
<rect width="15" height="15" fill="white"/>
</clipPath>
</defs>
</svg>
