<svg width="15" height="15" viewBox="0 0 15 15" fill="none" xmlns="http://www.w3.org/2000/svg">
<g clip-path="url(#clip0_53_11446)">
<mask id="mask0_53_11446" style="mask-type:luminance" maskUnits="userSpaceOnUse" x="0" y="0" width="15" height="15">
<path d="M15 0H0V15H15V0Z" fill="white"/>
</mask>
<g mask="url(#mask0_53_11446)">
<path d="M9.18906 14.2192H5.81406C2.72656 14.2192 1.41406 12.9004 1.41406 9.81919V7.01294C1.41406 6.75669 1.62656 6.54419 1.88281 6.54419C2.13906 6.54419 2.35156 6.75669 2.35156 7.01294V9.81919C2.35156 12.3754 3.25781 13.2817 5.81406 13.2817H9.18281C11.7391 13.2817 12.6453 12.3754 12.6453 9.81919V7.01294C12.6453 6.75669 12.8578 6.54419 13.1141 6.54419C13.3703 6.54419 13.5828 6.75669 13.5828 7.01294V9.81919C13.5891 12.9004 12.2703 14.2192 9.18906 14.2192Z" fill="black"/>
<path d="M7.50281 7.96875C6.81531 7.96875 6.19031 7.7 5.74656 7.20625C5.30281 6.7125 5.09656 6.06875 5.16531 5.38125L5.58406 1.20625C5.60906 0.96875 5.80906 0.78125 6.05281 0.78125H8.97156C9.21531 0.78125 9.41531 0.9625 9.44031 1.20625L9.85906 5.38125C9.92781 6.06875 9.72156 6.7125 9.27781 7.20625C8.81531 7.7 8.19031 7.96875 7.50281 7.96875ZM6.47156 1.71875L6.09656 5.475C6.05281 5.89375 6.17781 6.2875 6.44031 6.575C6.97156 7.1625 8.03406 7.1625 8.56531 6.575C8.82781 6.28125 8.95281 5.8875 8.90906 5.475L8.53406 1.71875H6.47156Z" fill="black"/>
<path d="M11.4435 7.96875C10.1748 7.96875 9.04351 6.94375 8.91226 5.68125L8.47476 1.3C8.46226 1.16875 8.50601 1.0375 8.59351 0.9375C8.68101 0.8375 8.80601 0.78125 8.94351 0.78125H10.8498C12.6873 0.78125 13.5435 1.55 13.7998 3.4375L13.9748 5.175C14.0498 5.9125 13.8248 6.6125 13.3435 7.14375C12.8623 7.675 12.1873 7.96875 11.4435 7.96875ZM9.46226 1.71875L9.84976 5.5875C9.93101 6.36875 10.656 7.03125 11.4435 7.03125C11.9185 7.03125 12.3435 6.85 12.6498 6.51875C12.9498 6.1875 13.0873 5.74375 13.0435 5.26875L12.8685 3.55C12.6748 2.1375 12.2185 1.71875 10.8498 1.71875H9.46226Z" fill="black"/>
<path d="M3.52587 7.96875C2.78212 7.96875 2.10712 7.675 1.62587 7.14375C1.14462 6.6125 0.919618 5.9125 0.994618 5.175L1.16337 3.45625C1.42587 1.55 2.28212 0.78125 4.11962 0.78125H6.02587C6.15712 0.78125 6.28211 0.8375 6.37586 0.9375C6.46961 1.0375 6.50711 1.16875 6.49461 1.3L6.05712 5.68125C5.92587 6.94375 4.79462 7.96875 3.52587 7.96875ZM4.11962 1.71875C2.75087 1.71875 2.29462 2.13125 2.09462 3.5625L1.92587 5.26875C1.87587 5.74375 2.01962 6.1875 2.31962 6.51875C2.61962 6.85 3.04462 7.03125 3.52587 7.03125C4.31337 7.03125 5.04462 6.36875 5.11962 5.5875L5.50712 1.71875H4.11962Z" fill="black"/>
<path d="M9.0625 14.2188H5.9375C5.68125 14.2188 5.46875 14.0062 5.46875 13.75V12.1875C5.46875 10.875 6.1875 10.1562 7.5 10.1562C8.8125 10.1562 9.53125 10.875 9.53125 12.1875V13.75C9.53125 14.0062 9.31875 14.2188 9.0625 14.2188ZM6.40625 13.2812H8.59375V12.1875C8.59375 11.4 8.2875 11.0938 7.5 11.0938C6.7125 11.0938 6.40625 11.4 6.40625 12.1875V13.2812Z" fill="black"/>
</g>
</g>
<defs>
<clipPath id="clip0_53_11446">
<rect width="15" height="15" fill="white"/>
</clipPath>
</defs>
</svg>
