<svg width="13" height="16" viewBox="0 0 13 16" fill="none" xmlns="http://www.w3.org/2000/svg">
<path d="M12.5 5.1875V12.5C12.5 14.75 11.1575 15.5 9.5 15.5H3.5C1.8425 15.5 0.5 14.75 0.5 12.5V5.1875C0.5 2.75 1.8425 2.1875 3.5 2.1875C3.5 2.6525 3.68748 3.0725 3.99498 3.38C4.30248 3.6875 4.7225 3.875 5.1875 3.875H7.8125C8.7425 3.875 9.5 3.1175 9.5 2.1875C11.1575 2.1875 12.5 2.75 12.5 5.1875Z" stroke="black" stroke-linecap="round" stroke-linejoin="round"/>
<path d="M9.5 2.1875C9.5 3.1175 8.7425 3.875 7.8125 3.875H5.1875C4.7225 3.875 4.30248 3.6875 3.99498 3.38C3.68748 3.0725 3.5 2.6525 3.5 2.1875C3.5 1.2575 4.2575 0.5 5.1875 0.5H7.8125C8.2775 0.5 8.6975 0.6875 9.005 0.995C9.3125 1.3025 9.5 1.7225 9.5 2.1875Z" stroke="black" stroke-linecap="round" stroke-linejoin="round"/>
<path d="M3.5 8.75H6.5" stroke="black" stroke-linecap="round" stroke-linejoin="round"/>
<path d="M3.5 11.75H9.5" stroke="black" stroke-linecap="round" stroke-linejoin="round"/>
</svg>
