<svg width="15" height="15" viewBox="0 0 15 15" fill="none" xmlns="http://www.w3.org/2000/svg">
<g clip-path="url(#clip0_70_1697)">
<mask id="mask0_70_1697" style="mask-type:luminance" maskUnits="userSpaceOnUse" x="0" y="0" width="15" height="15">
<path d="M15 0H0V15H15V0Z" fill="white"/>
</mask>
<g mask="url(#mask0_70_1697)">
<path d="M11.3688 11.0938H4.71249C4.09374 11.0938 3.49999 10.8313 3.08124 10.375C2.66249 9.91875 2.45 9.30625 2.5 8.6875L3.01875 2.4625C3.0375 2.26875 2.96874 2.08126 2.83749 1.93751C2.70624 1.79376 2.525 1.71875 2.33125 1.71875H1.25C0.99375 1.71875 0.78125 1.50625 0.78125 1.25C0.78125 0.99375 0.99375 0.78125 1.25 0.78125H2.33751C2.79376 0.78125 3.22499 0.975 3.53124 1.30625C3.69999 1.49375 3.825 1.7125 3.89375 1.95625H11.7C12.3312 1.95625 12.9125 2.20625 13.3375 2.65625C13.7563 3.1125 13.9688 3.70625 13.9188 4.3375L13.5812 9.025C13.5125 10.1687 12.5125 11.0938 11.3688 11.0938ZM3.925 2.8875L3.4375 8.7625C3.40625 9.125 3.525 9.46875 3.76875 9.7375C4.0125 10.0063 4.34999 10.15 4.71249 10.15H11.3688C12.0188 10.15 12.6062 9.6 12.6562 8.95L12.9938 4.26251C13.0188 3.89376 12.9 3.54376 12.6562 3.28751C12.4125 3.02501 12.075 2.88124 11.7062 2.88124H3.925V2.8875Z" fill="white"/>
<path d="M10.1562 14.2188C9.46875 14.2188 8.90625 13.6562 8.90625 12.9688C8.90625 12.2812 9.46875 11.7188 10.1562 11.7188C10.8438 11.7188 11.4062 12.2812 11.4062 12.9688C11.4062 13.6562 10.8438 14.2188 10.1562 14.2188ZM10.1562 12.6562C9.98125 12.6562 9.84375 12.7938 9.84375 12.9688C9.84375 13.1437 9.98125 13.2812 10.1562 13.2812C10.3312 13.2812 10.4688 13.1437 10.4688 12.9688C10.4688 12.7938 10.3312 12.6562 10.1562 12.6562Z" fill="white"/>
<path d="M5.15625 14.2188C4.46875 14.2188 3.90625 13.6562 3.90625 12.9688C3.90625 12.2812 4.46875 11.7188 5.15625 11.7188C5.84375 11.7188 6.40625 12.2812 6.40625 12.9688C6.40625 13.6562 5.84375 14.2188 5.15625 14.2188ZM5.15625 12.6562C4.98125 12.6562 4.84375 12.7938 4.84375 12.9688C4.84375 13.1437 4.98125 13.2812 5.15625 13.2812C5.33125 13.2812 5.46875 13.1437 5.46875 12.9688C5.46875 12.7938 5.33125 12.6562 5.15625 12.6562Z" fill="white"/>
<path d="M13.125 5.46875H5.625C5.36875 5.46875 5.15625 5.25625 5.15625 5C5.15625 4.74375 5.36875 4.53125 5.625 4.53125H13.125C13.3813 4.53125 13.5938 4.74375 13.5938 5C13.5938 5.25625 13.3813 5.46875 13.125 5.46875Z" fill="white"/>
</g>
</g>
<defs>
<clipPath id="clip0_70_1697">
<rect width="15" height="15" fill="white"/>
</clipPath>
</defs>
</svg>
