<svg width="19" height="19" viewBox="0 0 19 19" fill="none" xmlns="http://www.w3.org/2000/svg">
<path d="M9 18C4.03902 18 0 13.961 0 9C0 4.03902 4.03902 0 9 0C13.961 0 18 4.03902 18 9C18 13.961 13.961 18 9 18ZM9 1.31707C4.75902 1.31707 1.31707 4.7678 1.31707 9C1.31707 13.2322 4.75902 16.6829 9 16.6829C13.241 16.6829 16.6829 13.2322 16.6829 9C16.6829 4.7678 13.241 1.31707 9 1.31707Z" fill="black"/>
<path d="M18.3584 19C18.1953 19 18.0322 18.94 17.9034 18.8113L16.1867 17.0958C15.9378 16.847 15.9378 16.4353 16.1867 16.1866C16.4356 15.9378 16.8476 15.9378 17.0966 16.1866L18.8133 17.9021C19.0622 18.1508 19.0622 18.5625 18.8133 18.8113C18.6845 18.94 18.5215 19 18.3584 19Z" fill="black"/>
</svg>
