<svg width="15" height="15" viewBox="0 0 15 15" fill="none" xmlns="http://www.w3.org/2000/svg">
<g clip-path="url(#clip0_129_2523)">
<path d="M7.1875 13.5938C3.65625 13.5938 0.78125 10.7188 0.78125 7.1875C0.78125 3.65625 3.65625 0.78125 7.1875 0.78125C10.7188 0.78125 13.5938 3.65625 13.5938 7.1875C13.5938 10.7188 10.7188 13.5938 7.1875 13.5938ZM7.1875 1.71875C4.16875 1.71875 1.71875 4.175 1.71875 7.1875C1.71875 10.2 4.16875 12.6562 7.1875 12.6562C10.2062 12.6562 12.6562 10.2 12.6562 7.1875C12.6562 4.175 10.2062 1.71875 7.1875 1.71875Z" fill="black"/>
<path d="M13.7499 14.2191C13.6312 14.2191 13.5124 14.1754 13.4187 14.0816L12.1687 12.8316C11.9874 12.6504 11.9874 12.3504 12.1687 12.1691C12.3499 11.9879 12.6499 11.9879 12.8312 12.1691L14.0812 13.4191C14.2624 13.6004 14.2624 13.9004 14.0812 14.0816C13.9874 14.1754 13.8687 14.2191 13.7499 14.2191Z" fill="black"/>
</g>
<defs>
<clipPath id="clip0_129_2523">
<rect width="15" height="15" fill="white"/>
</clipPath>
</defs>
</svg>
