<svg width="15" height="15" viewBox="0 0 15 15" fill="none" xmlns="http://www.w3.org/2000/svg">
<g clip-path="url(#clip0_70_1757)">
<mask id="mask0_70_1757" style="mask-type:luminance" maskUnits="userSpaceOnUse" x="0" y="0" width="15" height="15">
<path d="M15 0H0V15H15V0Z" fill="white"/>
</mask>
<g mask="url(#mask0_70_1757)">
<path d="M7.5 9.84375C6.20625 9.84375 5.15625 8.79375 5.15625 7.5C5.15625 6.20625 6.20625 5.15625 7.5 5.15625C8.79375 5.15625 9.84375 6.20625 9.84375 7.5C9.84375 8.79375 8.79375 9.84375 7.5 9.84375ZM7.5 6.09375C6.725 6.09375 6.09375 6.725 6.09375 7.5C6.09375 8.275 6.725 8.90625 7.5 8.90625C8.275 8.90625 8.90625 8.275 8.90625 7.5C8.90625 6.725 8.275 6.09375 7.5 6.09375Z" fill="white"/>
<path d="M9.50625 13.8689C9.375 13.8689 9.24375 13.8502 9.1125 13.8189C8.725 13.7127 8.4 13.4689 8.19375 13.1252L8.11875 13.0002C7.75 12.3627 7.24375 12.3627 6.875 13.0002L6.80625 13.1189C6.6 13.4689 6.275 13.7189 5.8875 13.8189C5.49375 13.9252 5.0875 13.8689 4.74375 13.6627L3.66875 13.0439C3.2875 12.8252 3.0125 12.4689 2.89375 12.0377C2.78125 11.6064 2.8375 11.1627 3.05625 10.7814C3.2375 10.4627 3.2875 10.1752 3.18125 9.99394C3.075 9.81269 2.80625 9.70644 2.4375 9.70644C1.525 9.70644 0.78125 8.96268 0.78125 8.05018V6.95019C0.78125 6.03768 1.525 5.29393 2.4375 5.29393C2.80625 5.29393 3.075 5.18768 3.18125 5.00643C3.2875 4.82518 3.24375 4.53768 3.05625 4.21893C2.8375 3.83768 2.78125 3.38768 2.89375 2.96268C3.00625 2.53143 3.28125 2.17518 3.66875 1.95643L4.75 1.33768C5.45625 0.918929 6.3875 1.16268 6.8125 1.88143L6.8875 2.00643C7.25625 2.64393 7.7625 2.64393 8.13125 2.00643L8.2 1.88768C8.625 1.16268 9.55625 0.918929 10.2688 1.34393L11.3438 1.96268C11.725 2.18143 12 2.53768 12.1187 2.96893C12.2312 3.40018 12.175 3.84393 11.9562 4.22518C11.775 4.54393 11.725 4.83143 11.8313 5.01268C11.9375 5.19393 12.2063 5.30018 12.575 5.30018C13.4875 5.30018 14.2313 6.04393 14.2313 6.95643V8.05644C14.2313 8.96894 13.4875 9.71269 12.575 9.71269C12.2063 9.71269 11.9375 9.81893 11.8313 10.0002C11.725 10.1814 11.7687 10.4689 11.9562 10.7877C12.175 11.1689 12.2375 11.6189 12.1187 12.0439C12.0062 12.4752 11.7312 12.8314 11.3438 13.0502L10.2625 13.6689C10.025 13.8002 9.76875 13.8689 9.50625 13.8689ZM7.5 11.5564C8.05625 11.5564 8.575 11.9064 8.93125 12.5252L9 12.6439C9.075 12.7752 9.2 12.8689 9.35 12.9064C9.5 12.9439 9.65 12.9252 9.775 12.8502L10.8563 12.2252C11.0188 12.1314 11.1438 11.9752 11.1938 11.7877C11.2437 11.6002 11.2188 11.4064 11.125 11.2439C10.7687 10.6314 10.725 10.0002 11 9.51894C11.275 9.03768 11.8438 8.76268 12.5562 8.76268C12.9563 8.76268 13.275 8.44394 13.275 8.04394V6.94394C13.275 6.55019 12.9563 6.22518 12.5562 6.22518C11.8438 6.22518 11.275 5.95018 11 5.46893C10.725 4.98768 10.7687 4.35643 11.125 3.74393C11.2188 3.58143 11.2437 3.38768 11.1938 3.20018C11.1438 3.01268 11.025 2.86268 10.8625 2.76268L9.78125 2.14393C9.5125 1.98143 9.15625 2.07518 8.99375 2.35018L8.925 2.46893C8.56875 3.08768 8.05 3.43768 7.49375 3.43768C6.9375 3.43768 6.41875 3.08768 6.0625 2.46893L5.99375 2.34393C5.8375 2.08143 5.4875 1.98768 5.21875 2.14393L4.1375 2.76893C3.975 2.86268 3.85 3.01893 3.8 3.20643C3.75 3.39393 3.775 3.58768 3.86875 3.75018C4.225 4.36268 4.26875 4.99393 3.99375 5.47518C3.71875 5.95643 3.15 6.23143 2.4375 6.23143C2.0375 6.23143 1.71875 6.55019 1.71875 6.95019V8.05018C1.71875 8.44393 2.0375 8.76894 2.4375 8.76894C3.15 8.76894 3.71875 9.04394 3.99375 9.52519C4.26875 10.0064 4.225 10.6377 3.86875 11.2502C3.775 11.4127 3.75 11.6064 3.8 11.7939C3.85 11.9814 3.96875 12.1314 4.13125 12.2314L5.2125 12.8502C5.34375 12.9314 5.5 12.9502 5.64375 12.9127C5.79375 12.8752 5.91875 12.7752 6 12.6439L6.06875 12.5252C6.425 11.9127 6.94375 11.5564 7.5 11.5564Z" fill="white"/>
</g>
</g>
<defs>
<clipPath id="clip0_70_1757">
<rect width="15" height="15" fill="white"/>
</clipPath>
</defs>
</svg>
