<svg width="12" height="12" viewBox="0 0 12 12" fill="none" xmlns="http://www.w3.org/2000/svg">
<circle cx="6" cy="6" r="5.85" fill="#D9D9D9" stroke="#5A6578" stroke-width="0.3"/>
<g clip-path="url(#clip0_70_432)">
<mask id="mask0_70_432" style="mask-type:luminance" maskUnits="userSpaceOnUse" x="1" y="1" width="10" height="10">
<path d="M11 1H1V11H11V1Z" fill="white"/>
</mask>
<g mask="url(#mask0_70_432)">
<path opacity="0.4" d="M6.00004 1.8335C4.90837 1.8335 4.02087 2.721 4.02087 3.81266C4.02087 4.8835 4.85837 5.75016 5.95004 5.78766C5.98337 5.7835 6.01671 5.7835 6.04171 5.78766C6.05004 5.78766 6.05421 5.78766 6.06254 5.78766C6.06671 5.78766 6.06671 5.78766 6.07087 5.78766C7.13754 5.75016 7.97504 4.8835 7.97921 3.81266C7.97921 2.721 7.09171 1.8335 6.00004 1.8335Z" fill="#5A6578"/>
<path d="M8.11665 6.89619C6.95415 6.12119 5.05832 6.12119 3.88748 6.89619C3.35832 7.25036 3.06665 7.72952 3.06665 8.24202C3.06665 8.75452 3.35832 9.22952 3.88332 9.57952C4.46665 9.97119 5.23332 10.167 5.99999 10.167C6.76665 10.167 7.53332 9.97119 8.11665 9.57952C8.64165 9.22536 8.93332 8.75036 8.93332 8.23369C8.92916 7.72119 8.64165 7.24619 8.11665 6.89619Z" fill="#5A6578"/>
</g>
</g>
<defs>
<clipPath id="clip0_70_432">
<rect width="10" height="10" fill="white" transform="translate(1 1)"/>
</clipPath>
</defs>
</svg>
